<svg width="566" height="150" viewBox="0 0 566 150" fill="none" xmlns="http://www.w3.org/2000/svg">
<path d="M5.86989 111.158C5.5785 108.856 5.4328 107.705 6.0878 106.963C6.74281 106.22 7.90229 106.221 10.2212 106.223L556.265 106.671C558.61 106.672 559.782 106.673 560.437 107.427C561.091 108.181 560.927 109.346 560.599 111.677C558.059 129.726 556.789 138.751 550.606 144.125C544.423 149.499 535.344 149.499 517.185 149.499H49.3523C30.9566 149.499 21.7588 149.499 15.548 144.024C9.3372 138.55 8.18143 129.42 5.86989 111.158Z" fill="url(#paint0_linear_8_13)"/>
<path d="M16.2742 46.9058C19.916 30.4311 21.7369 22.1938 27.7483 17.3661C33.7598 12.5383 42.196 12.5383 59.0684 12.5383H506.932C523.804 12.5383 532.24 12.5383 538.252 17.3661C544.263 22.1938 546.084 30.4311 549.726 46.9058L558.07 84.6559C561.333 99.417 562.965 106.798 559.018 111.713C555.07 116.628 547.511 116.628 532.394 116.628H33.606C18.4886 116.628 10.9298 116.628 6.98242 111.713C3.03501 106.798 4.6665 99.417 7.92947 84.6559L16.2742 46.9058Z" fill="url(#paint1_linear_8_13)"/>
<g filter="url(#filter0_f_8_13)">
<path d="M17.3441 47.1423C19.1708 38.8784 20.5215 32.777 22.1562 28.1321C23.781 23.5154 25.6473 20.4586 28.4344 18.2204C31.2215 15.9821 34.609 14.8195 39.4676 14.2295C44.3558 13.6359 50.605 13.634 59.0684 13.634H506.932C515.395 13.634 521.644 13.6359 526.532 14.2295C531.391 14.8195 534.778 15.9821 537.566 18.2204C540.353 20.4586 542.219 23.5154 543.844 28.1321C545.479 32.777 546.829 38.8784 548.656 47.1423L557.001 84.8924C558.64 92.3063 559.84 97.7507 560.155 101.958C560.468 106.137 559.887 108.88 558.163 111.027C556.439 113.174 553.886 114.333 549.739 114.929C545.562 115.53 539.987 115.532 532.394 115.532H33.606C26.0131 115.532 20.4379 115.53 16.2614 114.929C12.1141 114.333 9.56077 113.174 7.83671 111.027C6.11265 108.88 5.53182 106.137 5.84467 101.958C6.15973 97.7507 7.36046 92.3063 8.99933 84.8924L17.3441 47.1423Z" stroke="url(#paint2_linear_8_13)" stroke-width="2.19136"/>
</g>
<g opacity="0.2">
<g filter="url(#filter1_i_8_13)">
<path d="M43.5882 57.2376C46.7341 40.056 48.3071 31.4652 54.4025 26.3845C60.498 21.3038 69.2316 21.3038 86.6988 21.3038H481.493C498.96 21.3038 507.693 21.3038 513.789 26.3845C519.884 31.4652 521.457 40.056 524.603 57.2376L526.586 68.0648C529.219 82.4467 530.536 89.6377 526.593 94.3675C522.651 99.0972 515.34 99.0972 500.719 99.0972H67.4721C52.8511 99.0972 45.5406 99.0972 41.5982 94.3675C37.6558 89.6377 38.9724 82.4467 41.6058 68.0648L43.5882 57.2376Z" fill="url(#paint3_linear_8_13)"/>
</g>
<path d="M44.1271 57.3363C45.7025 48.7318 46.8761 42.328 48.412 37.4374C49.9433 32.5612 51.8167 29.2531 54.7533 26.8054C57.6899 24.3576 61.2813 23.1107 66.3536 22.4826C71.4408 21.8527 77.9512 21.8517 86.6988 21.8517H481.493C490.24 21.8517 496.751 21.8527 501.838 22.4826C506.91 23.1107 510.501 24.3576 513.438 26.8054C516.375 29.2531 518.248 32.5612 519.779 37.4374C521.315 42.328 522.489 48.7318 524.064 57.3363L526.047 68.1634C527.366 75.371 528.344 80.7188 528.508 84.8573C528.671 88.9807 528.019 91.8007 526.172 94.0167C524.325 96.2328 521.669 97.3814 517.583 97.9637C513.483 98.5481 508.047 98.5494 500.719 98.5494H67.4721C60.1447 98.5494 54.7083 98.5481 50.608 97.9637C46.5226 97.3814 43.8661 96.2328 42.019 94.0167C40.1719 91.8007 39.5205 88.9807 39.6835 84.8573C39.8471 80.7188 40.8249 75.371 42.1446 68.1634L44.1271 57.3363Z" stroke="url(#paint4_linear_8_13)" stroke-width="1.09568"/>
</g>
<g filter="url(#filter2_d_8_13)">
<path d="M56.7701 9.37729C57.7073 7.19058 58.1758 6.09723 59.1075 5.48291C60.0391 4.86859 61.2286 4.86859 63.6077 4.86859H86.0332C88.4123 4.86859 89.6018 4.86859 90.5334 5.48291C91.4651 6.09723 91.9336 7.19058 92.8708 9.37729L94.6581 13.5475H54.9828L56.7701 9.37729Z" fill="url(#paint5_linear_8_13)"/>
<g filter="url(#filter3_f_8_13)">
<path d="M57.7772 9.8089C58.2551 8.69382 58.5807 7.93775 58.8958 7.37767C59.1978 6.84077 59.4424 6.57452 59.7106 6.39763C59.9789 6.22073 60.32 6.10086 60.9324 6.03473C61.5713 5.96575 62.3945 5.96427 63.6077 5.96427H86.0332C87.2464 5.96427 88.0696 5.96575 88.7085 6.03473C89.321 6.10086 89.662 6.22073 89.9303 6.39763C90.1985 6.57452 90.4431 6.84077 90.7451 7.37767C91.0602 7.93775 91.3858 8.69382 91.8637 9.8089L92.9964 12.4519H56.6445L57.7772 9.8089Z" stroke="url(#paint6_linear_8_13)" stroke-width="2.19136"/>
</g>
<path d="M54.9828 13.5475H94.6581L96.4942 23.6251C97.3672 28.4161 97.8036 30.8116 96.4896 32.3867C95.1755 33.9618 92.7406 33.9618 87.8708 33.9618H61.7702C56.9003 33.9618 54.4654 33.9618 53.1514 32.3867C51.8373 30.8116 52.2738 28.4161 53.1467 23.6251L54.9828 13.5475Z" fill="url(#paint7_linear_8_13)"/>
<path d="M123.607 9.37729C124.544 7.19058 125.012 6.09723 125.944 5.48291C126.876 4.86859 128.065 4.86859 130.444 4.86859H152.87C155.249 4.86859 156.438 4.86859 157.37 5.48291C158.302 6.09723 158.77 7.19058 159.707 9.37729L161.495 13.5475H121.819L123.607 9.37729Z" fill="url(#paint8_linear_8_13)"/>
<g filter="url(#filter4_f_8_13)">
<path d="M124.614 9.8089C125.092 8.69382 125.417 7.93775 125.732 7.37767C126.034 6.84077 126.279 6.57452 126.547 6.39763C126.815 6.22073 127.157 6.10086 127.769 6.03473C128.408 5.96575 129.231 5.96427 130.444 5.96427H152.87C154.083 5.96427 154.906 5.96575 155.545 6.03473C156.158 6.10086 156.499 6.22073 156.767 6.39763C157.035 6.57452 157.28 6.84077 157.582 7.37767C157.897 7.93775 158.222 8.69382 158.7 9.8089L159.833 12.4519H123.481L124.614 9.8089Z" stroke="url(#paint9_linear_8_13)" stroke-width="2.19136"/>
</g>
<path d="M121.819 13.5475H161.495L165.214 33.9618H118.1L121.819 13.5475Z" fill="url(#paint10_linear_8_13)"/>
<path d="M170.721 9.37729C171.658 7.19058 172.127 6.09723 173.058 5.48291C173.99 4.86859 175.18 4.86859 177.559 4.86859H199.984C202.363 4.86859 203.553 4.86859 204.484 5.48291C205.416 6.09723 205.885 7.19058 206.822 9.37729L208.609 13.5475H168.934L170.721 9.37729Z" fill="url(#paint11_linear_8_13)"/>
<g filter="url(#filter5_f_8_13)">
<path d="M171.728 9.8089C172.206 8.69382 172.532 7.93775 172.847 7.37767C173.149 6.84077 173.393 6.57452 173.662 6.39763C173.93 6.22073 174.271 6.10086 174.883 6.03473C175.522 5.96575 176.345 5.96427 177.559 5.96427H199.984C201.197 5.96427 202.02 5.96575 202.659 6.03473C203.272 6.10086 203.613 6.22073 203.881 6.39763C204.149 6.57452 204.394 6.84077 204.696 7.37767C205.011 7.93775 205.337 8.69382 205.815 9.8089L206.947 12.4519H170.595L171.728 9.8089Z" stroke="url(#paint12_linear_8_13)" stroke-width="2.19136"/>
</g>
<path d="M168.934 13.5475H208.609L212.329 33.9618H165.214L168.934 13.5475Z" fill="url(#paint13_linear_8_13)"/>
<path d="M217.835 9.37729C218.773 7.19058 219.241 6.09723 220.173 5.48291C221.104 4.86859 222.294 4.86859 224.673 4.86859H247.098C249.478 4.86859 250.667 4.86859 251.599 5.48291C252.53 6.09723 252.999 7.19058 253.936 9.37729L255.723 13.5475H216.048L217.835 9.37729Z" fill="url(#paint14_linear_8_13)"/>
<g filter="url(#filter6_f_8_13)">
<path d="M218.842 9.8089C219.32 8.69382 219.646 7.93775 219.961 7.37767C220.263 6.84077 220.508 6.57452 220.776 6.39763C221.044 6.22073 221.385 6.10086 221.998 6.03473C222.637 5.96575 223.46 5.96427 224.673 5.96427H247.098C248.312 5.96427 249.135 5.96575 249.774 6.03473C250.386 6.10086 250.727 6.22073 250.996 6.39763C251.264 6.57452 251.508 6.84077 251.81 7.37767C252.125 7.93775 252.451 8.69382 252.929 9.8089L254.062 12.4519H217.71L218.842 9.8089Z" stroke="url(#paint15_linear_8_13)" stroke-width="2.19136"/>
</g>
<path d="M216.048 13.5475H255.723L259.443 33.9618H212.329L216.048 13.5475Z" fill="url(#paint16_linear_8_13)"/>
<path d="M264.95 9.37729C265.887 7.19058 266.355 6.09723 267.287 5.48291C268.219 4.86859 269.408 4.86859 271.787 4.86859H294.213C296.592 4.86859 297.781 4.86859 298.713 5.48291C299.645 6.09723 300.113 7.19058 301.05 9.37729L302.838 13.5475H263.162L264.95 9.37729Z" fill="url(#paint17_linear_8_13)"/>
<g filter="url(#filter7_f_8_13)">
<path d="M265.957 9.8089C266.435 8.69382 266.76 7.93775 267.075 7.37767C267.377 6.84077 267.622 6.57452 267.89 6.39763C268.158 6.22073 268.5 6.10086 269.112 6.03473C269.751 5.96575 270.574 5.96427 271.787 5.96427H294.213C295.426 5.96427 296.249 5.96575 296.888 6.03473C297.501 6.10086 297.842 6.22073 298.11 6.39763C298.378 6.57452 298.623 6.84077 298.925 7.37767C299.24 7.93775 299.565 8.69382 300.043 9.8089L301.176 12.4519H264.824L265.957 9.8089Z" stroke="url(#paint18_linear_8_13)" stroke-width="2.19136"/>
</g>
<path d="M263.162 13.5475H302.838L306.557 33.9618H259.443L263.162 13.5475Z" fill="url(#paint19_linear_8_13)"/>
<path d="M312.064 9.37729C313.001 7.19058 313.47 6.09723 314.401 5.48291C315.333 4.86859 316.523 4.86859 318.902 4.86859H341.327C343.706 4.86859 344.896 4.86859 345.827 5.48291C346.759 6.09723 347.228 7.19058 348.165 9.37729L349.952 13.5475H310.277L312.064 9.37729Z" fill="url(#paint20_linear_8_13)"/>
<g filter="url(#filter8_f_8_13)">
<path d="M313.071 9.8089C313.549 8.69382 313.875 7.93775 314.19 7.37767C314.492 6.84077 314.736 6.57452 315.005 6.39763C315.273 6.22073 315.614 6.10086 316.226 6.03473C316.865 5.96575 317.688 5.96427 318.902 5.96427H341.327C342.54 5.96427 343.363 5.96575 344.002 6.03473C344.615 6.10086 344.956 6.22073 345.224 6.39763C345.492 6.57452 345.737 6.84077 346.039 7.37767C346.354 7.93775 346.68 8.69382 347.158 9.8089L348.29 12.4519H311.938L313.071 9.8089Z" stroke="url(#paint21_linear_8_13)" stroke-width="2.19136"/>
</g>
<path d="M310.277 13.5475H349.952L353.671 33.9618H306.557L310.277 13.5475Z" fill="url(#paint22_linear_8_13)"/>
<path d="M359.178 9.37729C360.115 7.19058 360.584 6.09723 361.516 5.48291C362.447 4.86859 363.637 4.86859 366.016 4.86859H388.441C390.82 4.86859 392.01 4.86859 392.942 5.48291C393.873 6.09723 394.342 7.19058 395.279 9.37729L397.066 13.5475H357.391L359.178 9.37729Z" fill="url(#paint23_linear_8_13)"/>
<g filter="url(#filter9_f_8_13)">
<path d="M360.185 9.8089C360.663 8.69382 360.989 7.93775 361.304 7.37767C361.606 6.84077 361.851 6.57452 362.119 6.39763C362.387 6.22073 362.728 6.10086 363.341 6.03473C363.98 5.96575 364.803 5.96427 366.016 5.96427H388.441C389.655 5.96427 390.478 5.96575 391.117 6.03473C391.729 6.10086 392.07 6.22073 392.338 6.39763C392.607 6.57452 392.851 6.84077 393.153 7.37767C393.468 7.93775 393.794 8.69382 394.272 9.8089L395.405 12.4519H359.053L360.185 9.8089Z" stroke="url(#paint24_linear_8_13)" stroke-width="2.19136"/>
</g>
<path d="M357.391 13.5475H397.066L400.786 33.9618H353.671L357.391 13.5475Z" fill="url(#paint25_linear_8_13)"/>
<path d="M406.293 9.37729C407.23 7.19058 407.698 6.09723 408.63 5.48291C409.562 4.86859 410.751 4.86859 413.13 4.86859H435.556C437.935 4.86859 439.124 4.86859 440.056 5.48291C440.988 6.09723 441.456 7.19058 442.393 9.37729L444.181 13.5475H404.505L406.293 9.37729Z" fill="url(#paint26_linear_8_13)"/>
<g filter="url(#filter10_f_8_13)">
<path d="M407.3 9.8089C407.778 8.69382 408.103 7.93775 408.418 7.37767C408.72 6.84077 408.965 6.57452 409.233 6.39763C409.501 6.22073 409.842 6.10086 410.455 6.03473C411.094 5.96575 411.917 5.96427 413.13 5.96427H435.556C436.769 5.96427 437.592 5.96575 438.231 6.03473C438.843 6.10086 439.184 6.22073 439.453 6.39763C439.721 6.57452 439.966 6.84077 440.268 7.37767C440.583 7.93775 440.908 8.69382 441.386 9.8089L442.519 12.4519H406.167L407.3 9.8089Z" stroke="url(#paint27_linear_8_13)" stroke-width="2.19136"/>
</g>
<path d="M404.505 13.5475H444.181L447.9 33.9618H400.786L404.505 13.5475Z" fill="url(#paint28_linear_8_13)"/>
<path d="M474.225 9.37729C475.162 7.19058 475.631 6.09723 476.562 5.48291C477.494 4.86859 478.683 4.86859 481.062 4.86859H503.488C505.867 4.86859 507.057 4.86859 507.988 5.48291C508.92 6.09723 509.388 7.19058 510.326 9.37729L512.113 13.5475H472.438L474.225 9.37729Z" fill="url(#paint29_linear_8_13)"/>
<g filter="url(#filter11_f_8_13)">
<path d="M475.232 9.8089C475.71 8.69382 476.035 7.93775 476.351 7.37767C476.653 6.84077 476.897 6.57452 477.165 6.39763C477.434 6.22073 477.775 6.10086 478.387 6.03473C479.026 5.96575 479.849 5.96427 481.062 5.96427H503.488C504.701 5.96427 505.524 5.96575 506.163 6.03473C506.776 6.10086 507.117 6.22073 507.385 6.39763C507.653 6.57452 507.898 6.84077 508.2 7.37767C508.515 7.93775 508.841 8.69382 509.318 9.8089L510.451 12.4519H474.099L475.232 9.8089Z" stroke="url(#paint30_linear_8_13)" stroke-width="2.19136"/>
</g>
<path d="M472.438 13.5475H512.113L513.949 23.6251C514.822 28.4161 515.258 30.8116 513.944 32.3867C512.63 33.9618 510.195 33.9618 505.326 33.9618H479.225C474.355 33.9618 471.92 33.9618 470.606 32.3867C469.292 30.8116 469.729 28.4161 470.601 23.6251L472.438 13.5475Z" fill="url(#paint31_linear_8_13)"/>
</g>
<g filter="url(#filter12_d_8_13)">
<path d="M53.4831 30.1952C54.4202 28.0085 54.8888 26.9152 55.8204 26.3008C56.7521 25.6865 57.9416 25.6865 60.3207 25.6865H82.7461C85.1252 25.6865 86.3147 25.6865 87.2464 26.3008C88.178 26.9152 88.6466 28.0085 89.5838 30.1952L91.371 34.3655H51.6958L53.4831 30.1952Z" fill="url(#paint32_linear_8_13)"/>
<g filter="url(#filter13_f_8_13)">
<path d="M54.4901 30.6268C54.968 29.5117 55.2937 28.7557 55.6088 28.1956C55.9108 27.6587 56.1553 27.3925 56.4236 27.2156C56.6919 27.0387 57.0329 26.9188 57.6454 26.8527C58.2843 26.7837 59.1075 26.7822 60.3207 26.7822H82.7461C83.9593 26.7822 84.7825 26.7837 85.4214 26.8527C86.0339 26.9188 86.375 27.0387 86.6432 27.2156C86.9115 27.3925 87.156 27.6587 87.4581 28.1956C87.7731 28.7557 88.0988 29.5117 88.5767 30.6268L89.7094 33.2698H53.3574L54.4901 30.6268Z" stroke="url(#paint33_linear_8_13)" stroke-width="2.19136"/>
</g>
<path d="M51.6958 34.3655H91.371L93.0838 43.2614C94.013 48.0873 94.4775 50.5002 93.1628 52.0922C91.8482 53.6841 89.3909 53.6841 84.4764 53.6841H58.5904C53.6759 53.6841 51.2187 53.6841 49.904 52.0922C48.5893 50.5002 49.0539 48.0873 49.983 43.2614L51.6958 34.3655Z" fill="url(#paint34_linear_8_13)"/>
<path d="M100.597 30.1952C101.535 28.0085 102.003 26.9152 102.935 26.3008C103.866 25.6865 105.056 25.6865 107.435 25.6865H129.86C132.24 25.6865 133.429 25.6865 134.361 26.3008C135.292 26.9152 135.761 28.0085 136.698 30.1952L138.485 34.3655H98.8101L100.597 30.1952Z" fill="url(#paint35_linear_8_13)"/>
<g filter="url(#filter14_f_8_13)">
<path d="M101.604 30.6268C102.082 29.5117 102.408 28.7557 102.723 28.1956C103.025 27.6587 103.27 27.3925 103.538 27.2156C103.806 27.0387 104.147 26.9188 104.76 26.8527C105.399 26.7837 106.222 26.7822 107.435 26.7822H129.86C131.074 26.7822 131.897 26.7837 132.536 26.8527C133.148 26.9188 133.489 27.0387 133.758 27.2156C134.026 27.3925 134.27 27.6587 134.572 28.1956C134.887 28.7557 135.213 29.5117 135.691 30.6268L136.824 33.2698H100.472L101.604 30.6268Z" stroke="url(#paint36_linear_8_13)" stroke-width="2.19136"/>
</g>
<path d="M98.8101 34.3655H138.485L142.205 53.6841H95.0906L98.8101 34.3655Z" fill="url(#paint37_linear_8_13)"/>
<path d="M147.712 30.1952C148.649 28.0085 149.117 26.9152 150.049 26.3008C150.981 25.6865 152.17 25.6865 154.549 25.6865H176.975C179.354 25.6865 180.543 25.6865 181.475 26.3008C182.407 26.9152 182.875 28.0085 183.812 30.1952L185.6 34.3655H145.924L147.712 30.1952Z" fill="url(#paint38_linear_8_13)"/>
<g filter="url(#filter15_f_8_13)">
<path d="M148.719 30.6268C149.197 29.5117 149.522 28.7557 149.837 28.1956C150.139 27.6587 150.384 27.3925 150.652 27.2156C150.92 27.0387 151.262 26.9188 151.874 26.8527C152.513 26.7837 153.336 26.7822 154.549 26.7822H176.975C178.188 26.7822 179.011 26.7837 179.65 26.8527C180.263 26.9188 180.604 27.0387 180.872 27.2156C181.14 27.3925 181.385 27.6587 181.687 28.1956C182.002 28.7557 182.327 29.5117 182.805 30.6268L183.938 33.2698H147.586L148.719 30.6268Z" stroke="url(#paint39_linear_8_13)" stroke-width="2.19136"/>
</g>
<path d="M145.924 34.3655H185.6L189.319 53.6841H142.205L145.924 34.3655Z" fill="url(#paint40_linear_8_13)"/>
<path d="M194.826 30.1952C195.763 28.0085 196.232 26.9152 197.163 26.3008C198.095 25.6865 199.285 25.6865 201.664 25.6865H224.089C226.468 25.6865 227.658 25.6865 228.589 26.3008C229.521 26.9152 229.99 28.0085 230.927 30.1952L232.714 34.3655H193.039L194.826 30.1952Z" fill="url(#paint41_linear_8_13)"/>
<g filter="url(#filter16_f_8_13)">
<path d="M195.833 30.6268C196.311 29.5117 196.637 28.7557 196.952 28.1956C197.254 27.6587 197.498 27.3925 197.767 27.2156C198.035 27.0387 198.376 26.9188 198.988 26.8527C199.627 26.7837 200.45 26.7822 201.664 26.7822H224.089C225.302 26.7822 226.125 26.7837 226.764 26.8527C227.377 26.9188 227.718 27.0387 227.986 27.2156C228.254 27.3925 228.499 27.6587 228.801 28.1956C229.116 28.7557 229.442 29.5117 229.92 30.6268L231.052 33.2698H194.7L195.833 30.6268Z" stroke="url(#paint42_linear_8_13)" stroke-width="2.19136"/>
</g>
<path d="M193.039 34.3655H232.714L236.434 53.6841H189.319L193.039 34.3655Z" fill="url(#paint43_linear_8_13)"/>
<path d="M241.94 30.1952C242.877 28.0085 243.346 26.9152 244.278 26.3008C245.209 25.6865 246.399 25.6865 248.778 25.6865H271.203C273.582 25.6865 274.772 25.6865 275.704 26.3008C276.635 26.9152 277.104 28.0085 278.041 30.1952L279.828 34.3655H240.153L241.94 30.1952Z" fill="url(#paint44_linear_8_13)"/>
<g filter="url(#filter17_f_8_13)">
<path d="M242.947 30.6268C243.425 29.5117 243.751 28.7557 244.066 28.1956C244.368 27.6587 244.613 27.3925 244.881 27.2156C245.149 27.0387 245.49 26.9188 246.103 26.8527C246.742 26.7837 247.565 26.7822 248.778 26.7822H271.203C272.417 26.7822 273.24 26.7837 273.879 26.8527C274.491 26.9188 274.832 27.0387 275.1 27.2156C275.369 27.3925 275.613 27.6587 275.915 28.1956C276.23 28.7557 276.556 29.5117 277.034 30.6268L278.167 33.2698H241.815L242.947 30.6268Z" stroke="url(#paint45_linear_8_13)" stroke-width="2.19136"/>
</g>
<path d="M240.153 34.3655H279.828L283.548 53.6841H236.434L240.153 34.3655Z" fill="url(#paint46_linear_8_13)"/>
<path d="M289.055 30.1952C289.992 28.0085 290.46 26.9152 291.392 26.3008C292.324 25.6865 293.513 25.6865 295.892 25.6865H318.318C320.697 25.6865 321.886 25.6865 322.818 26.3008C323.75 26.9152 324.218 28.0085 325.155 30.1952L326.943 34.3655H287.267L289.055 30.1952Z" fill="url(#paint47_linear_8_13)"/>
<g filter="url(#filter18_f_8_13)">
<path d="M290.062 30.6268C290.54 29.5117 290.865 28.7557 291.18 28.1956C291.482 27.6587 291.727 27.3925 291.995 27.2156C292.263 27.0387 292.604 26.9188 293.217 26.8527C293.856 26.7837 294.679 26.7822 295.892 26.7822H318.318C319.531 26.7822 320.354 26.7837 320.993 26.8527C321.606 26.9188 321.947 27.0387 322.215 27.2156C322.483 27.3925 322.728 27.6587 323.03 28.1956C323.345 28.7557 323.67 29.5117 324.148 30.6268L325.281 33.2698H288.929L290.062 30.6268Z" stroke="url(#paint48_linear_8_13)" stroke-width="2.19136"/>
</g>
<path d="M287.267 34.3655H326.943L330.662 53.6841H283.548L287.267 34.3655Z" fill="url(#paint49_linear_8_13)"/>
<path d="M336.169 30.1952C337.106 28.0085 337.575 26.9152 338.506 26.3008C339.438 25.6865 340.628 25.6865 343.007 25.6865H365.432C367.811 25.6865 369.001 25.6865 369.932 26.3008C370.864 26.9152 371.333 28.0085 372.27 30.1952L374.057 34.3655H334.382L336.169 30.1952Z" fill="url(#paint50_linear_8_13)"/>
<g filter="url(#filter19_f_8_13)">
<path d="M337.176 30.6268C337.654 29.5117 337.98 28.7557 338.295 28.1956C338.597 27.6587 338.841 27.3925 339.11 27.2156C339.378 27.0387 339.719 26.9188 340.331 26.8527C340.97 26.7837 341.793 26.7822 343.007 26.7822H365.432C366.645 26.7822 367.468 26.7837 368.107 26.8527C368.72 26.9188 369.061 27.0387 369.329 27.2156C369.597 27.3925 369.842 27.6587 370.144 28.1956C370.459 28.7557 370.785 29.5117 371.263 30.6268L372.395 33.2698H336.043L337.176 30.6268Z" stroke="url(#paint51_linear_8_13)" stroke-width="2.19136"/>
</g>
<path d="M334.382 34.3655H374.057L377.776 53.6841H330.662L334.382 34.3655Z" fill="url(#paint52_linear_8_13)"/>
<path d="M383.283 30.1952C384.22 28.0085 384.689 26.9152 385.621 26.3008C386.552 25.6865 387.742 25.6865 390.121 25.6865H412.546C414.925 25.6865 416.115 25.6865 417.047 26.3008C417.978 26.9152 418.447 28.0085 419.384 30.1952L421.171 34.3655H381.496L383.283 30.1952Z" fill="url(#paint53_linear_8_13)"/>
<g filter="url(#filter20_f_8_13)">
<path d="M384.29 30.6268C384.768 29.5117 385.094 28.7557 385.409 28.1956C385.711 27.6587 385.956 27.3925 386.224 27.2156C386.492 27.0387 386.833 26.9188 387.446 26.8527C388.085 26.7837 388.908 26.7822 390.121 26.7822H412.546C413.76 26.7822 414.583 26.7837 415.222 26.8527C415.834 26.9188 416.175 27.0387 416.443 27.2156C416.712 27.3925 416.956 27.6587 417.258 28.1956C417.573 28.7557 417.899 29.5117 418.377 30.6268L419.51 33.2698H383.158L384.29 30.6268Z" stroke="url(#paint54_linear_8_13)" stroke-width="2.19136"/>
</g>
<path d="M381.496 34.3655H421.171L424.891 53.6841H377.776L381.496 34.3655Z" fill="url(#paint55_linear_8_13)"/>
<path d="M430.398 30.1952C431.335 28.0085 431.803 26.9152 432.735 26.3008C433.667 25.6865 434.856 25.6865 437.235 25.6865H459.661C462.04 25.6865 463.229 25.6865 464.161 26.3008C465.093 26.9152 465.561 28.0085 466.498 30.1952L468.286 34.3655H428.61L430.398 30.1952Z" fill="url(#paint56_linear_8_13)"/>
<g filter="url(#filter21_f_8_13)">
<path d="M431.405 30.6268C431.883 29.5117 432.208 28.7557 432.523 28.1956C432.825 27.6587 433.07 27.3925 433.338 27.2156C433.606 27.0387 433.947 26.9188 434.56 26.8527C435.199 26.7837 436.022 26.7822 437.235 26.7822H459.661C460.874 26.7822 461.697 26.7837 462.336 26.8527C462.948 26.9188 463.29 27.0387 463.558 27.2156C463.826 27.3925 464.071 27.6587 464.373 28.1956C464.688 28.7557 465.013 29.5117 465.491 30.6268L466.624 33.2698H430.272L431.405 30.6268Z" stroke="url(#paint57_linear_8_13)" stroke-width="2.19136"/>
</g>
<path d="M428.61 34.3655H468.286L472.005 53.6841H424.891L428.61 34.3655Z" fill="url(#paint58_linear_8_13)"/>
<path d="M477.512 30.1952C478.449 28.0085 478.918 26.9152 479.849 26.3008C480.781 25.6865 481.97 25.6865 484.35 25.6865H506.775C509.154 25.6865 510.344 25.6865 511.275 26.3008C512.207 26.9152 512.675 28.0085 513.613 30.1952L515.4 34.3655H475.725L477.512 30.1952Z" fill="url(#paint59_linear_8_13)"/>
<g filter="url(#filter22_f_8_13)">
<path d="M478.519 30.6268C478.997 29.5117 479.323 28.7557 479.638 28.1956C479.94 27.6587 480.184 27.3925 480.452 27.2156C480.721 27.0387 481.062 26.9188 481.674 26.8527C482.313 26.7837 483.136 26.7822 484.35 26.7822H506.775C507.988 26.7822 508.811 26.7837 509.45 26.8527C510.063 26.9188 510.404 27.0387 510.672 27.2156C510.94 27.3925 511.185 27.6587 511.487 28.1956C511.802 28.7557 512.128 29.5117 512.606 30.6268L513.738 33.2698H477.386L478.519 30.6268Z" stroke="url(#paint60_linear_8_13)" stroke-width="2.19136"/>
</g>
<path d="M475.725 34.3655H515.4L517.113 43.2614C518.042 48.0873 518.506 50.5002 517.192 52.0922C515.877 53.6841 513.42 53.6841 508.505 53.6841H482.619C477.705 53.6841 475.248 53.6841 473.933 52.0922C472.618 50.5002 473.083 48.0873 474.012 43.2614L475.725 34.3655Z" fill="url(#paint61_linear_8_13)"/>
</g>
<g filter="url(#filter23_d_8_13)">
<path d="M51.407 51.0132C52.3442 48.8265 52.8128 47.7332 53.7444 47.1188C54.6761 46.5045 55.8656 46.5045 58.2447 46.5045L107.284 46.5045C109.663 46.5045 110.852 46.5045 111.784 47.1188C112.716 47.7332 113.184 48.8265 114.121 51.0132L115.909 55.1835H49.6198L51.407 51.0132Z" fill="url(#paint62_linear_8_13)"/>
<g filter="url(#filter24_f_8_13)">
<path d="M52.4141 51.4448C52.892 50.3297 53.2177 49.5737 53.5327 49.0136C53.8348 48.4767 54.0793 48.2104 54.3476 48.0336C54.6159 47.8567 54.9569 47.7368 55.5694 47.6707C56.2083 47.6017 57.0315 47.6002 58.2447 47.6002H107.284C108.497 47.6002 109.32 47.6017 109.959 47.6707C110.571 47.7368 110.912 47.8567 111.181 48.0336C111.449 48.2104 111.694 48.4767 111.996 49.0136C112.311 49.5737 112.636 50.3297 113.114 51.4448L114.247 54.0878H51.2814L52.4141 51.4448Z" stroke="url(#paint63_linear_8_13)" stroke-width="2.19136"/>
</g>
<path d="M49.5044 55.1835H116.024L117.596 62.8879C118.589 67.7525 119.086 70.1847 117.771 71.7956C116.455 73.4064 113.973 73.4064 109.008 73.4064H56.5202C51.5554 73.4064 49.073 73.4064 47.7577 71.7956C46.4425 70.1847 46.9389 67.7525 47.9319 62.8879L49.5044 55.1835Z" fill="url(#paint64_linear_8_13)"/>
<path d="M123.607 51.0132C124.544 48.8265 125.012 47.7332 125.944 47.1188C126.876 46.5045 128.065 46.5045 130.444 46.5045H152.87C155.249 46.5045 156.438 46.5045 157.37 47.1188C158.302 47.7332 158.77 48.8265 159.707 51.0132L161.495 55.1835H121.819L123.607 51.0132Z" fill="url(#paint65_linear_8_13)"/>
<g filter="url(#filter25_f_8_13)">
<path d="M124.614 51.4448C125.092 50.3297 125.417 49.5737 125.732 49.0136C126.034 48.4767 126.279 48.2104 126.547 48.0336C126.815 47.8567 127.157 47.7368 127.769 47.6707C128.408 47.6017 129.231 47.6002 130.444 47.6002H152.87C154.083 47.6002 154.906 47.6017 155.545 47.6707C156.158 47.7368 156.499 47.8567 156.767 48.0336C157.035 48.2104 157.28 48.4767 157.582 49.0136C157.897 49.5737 158.222 50.3297 158.7 51.4448L159.833 54.0878H123.481L124.614 51.4448Z" stroke="url(#paint66_linear_8_13)" stroke-width="2.19136"/>
</g>
<path d="M121.819 55.1835H161.495L163.067 62.8879C164.06 67.7525 164.557 70.1847 163.241 71.7956C161.926 73.4064 159.444 73.4064 154.479 73.4064H128.835C123.87 73.4064 121.388 73.4064 120.073 71.7956C118.757 70.1847 119.254 67.7525 120.247 62.8879L121.819 55.1835Z" fill="url(#paint67_linear_8_13)"/>
<path d="M169.077 51.0132C170.015 48.8265 170.483 47.7332 171.415 47.1188C172.346 46.5045 173.536 46.5045 175.915 46.5045H198.341C200.72 46.5045 201.909 46.5045 202.841 47.1188C203.772 47.7332 204.241 48.8265 205.178 51.0132L206.965 55.1835H167.29L169.077 51.0132Z" fill="url(#paint68_linear_8_13)"/>
<g filter="url(#filter26_f_8_13)">
<path d="M170.085 51.4448C170.562 50.3297 170.888 49.5737 171.203 49.0136C171.505 48.4767 171.75 48.2104 172.018 48.0336C172.286 47.8567 172.627 47.7368 173.24 47.6707C173.879 47.6017 174.702 47.6002 175.915 47.6002H198.341C199.554 47.6002 200.377 47.6017 201.016 47.6707C201.628 47.7368 201.969 47.8567 202.238 48.0336C202.506 48.2104 202.75 48.4767 203.052 49.0136C203.368 49.5737 203.693 50.3297 204.171 51.4448L205.304 54.0878H168.952L170.085 51.4448Z" stroke="url(#paint69_linear_8_13)" stroke-width="2.19136"/>
</g>
<path d="M167.29 55.1835H206.965L208.538 62.8879C209.531 67.7525 210.027 70.1847 208.712 71.7956C207.397 73.4064 204.914 73.4064 199.95 73.4064H174.306C169.341 73.4064 166.859 73.4064 165.544 71.7956C164.228 70.1847 164.725 67.7525 165.718 62.8879L167.29 55.1835Z" fill="url(#paint70_linear_8_13)"/>
<path d="M216.192 51.0132C217.129 48.8265 217.598 47.7332 218.529 47.1188C219.461 46.5045 220.65 46.5045 223.029 46.5045H245.455C247.834 46.5045 249.024 46.5045 249.955 47.1188C250.887 47.7332 251.355 48.8265 252.293 51.0132L254.08 55.1835H214.405L216.192 51.0132Z" fill="url(#paint71_linear_8_13)"/>
<g filter="url(#filter27_f_8_13)">
<path d="M217.199 51.4448C217.677 50.3297 218.002 49.5737 218.318 49.0136C218.62 48.4767 218.864 48.2104 219.132 48.0336C219.401 47.8567 219.742 47.7368 220.354 47.6707C220.993 47.6017 221.816 47.6002 223.029 47.6002H245.455C246.668 47.6002 247.491 47.6017 248.13 47.6707C248.743 47.7368 249.084 47.8567 249.352 48.0336C249.62 48.2104 249.865 48.4767 250.167 49.0136C250.482 49.5737 250.808 50.3297 251.285 51.4448L252.418 54.0878H216.066L217.199 51.4448Z" stroke="url(#paint72_linear_8_13)" stroke-width="2.19136"/>
</g>
<path d="M214.405 55.1835H254.08L257.799 73.4064H210.685L214.405 55.1835Z" fill="url(#paint73_linear_8_13)"/>
<path d="M263.306 51.0132C264.243 48.8265 264.712 47.7332 265.644 47.1188C266.575 46.5045 267.765 46.5045 270.144 46.5045H292.569C294.948 46.5045 296.138 46.5045 297.069 47.1188C298.001 47.7332 298.47 48.8265 299.407 51.0132L301.194 55.1835H261.519L263.306 51.0132Z" fill="url(#paint74_linear_8_13)"/>
<g filter="url(#filter28_f_8_13)">
<path d="M264.313 51.4448C264.791 50.3297 265.117 49.5737 265.432 49.0136C265.734 48.4767 265.978 48.2104 266.247 48.0336C266.515 47.8567 266.856 47.7368 267.468 47.6707C268.107 47.6017 268.931 47.6002 270.144 47.6002H292.569C293.782 47.6002 294.606 47.6017 295.245 47.6707C295.857 47.7368 296.198 47.8567 296.466 48.0336C296.735 48.2104 296.979 48.4767 297.281 49.0136C297.596 49.5737 297.922 50.3297 298.4 51.4448L299.532 54.0878H263.181L264.313 51.4448Z" stroke="url(#paint75_linear_8_13)" stroke-width="2.19136"/>
</g>
<path d="M261.519 55.1835H301.194L304.914 73.4064H257.799L261.519 55.1835Z" fill="url(#paint76_linear_8_13)"/>
<path d="M310.42 51.0132C311.358 48.8265 311.826 47.7332 312.758 47.1188C313.689 46.5045 314.879 46.5045 317.258 46.5045H339.684C342.063 46.5045 343.252 46.5045 344.184 47.1188C345.115 47.7332 345.584 48.8265 346.521 51.0132L348.308 55.1835H308.633L310.42 51.0132Z" fill="url(#paint77_linear_8_13)"/>
<g filter="url(#filter29_f_8_13)">
<path d="M311.428 51.4448C311.905 50.3297 312.231 49.5737 312.546 49.0136C312.848 48.4767 313.093 48.2104 313.361 48.0336C313.629 47.8567 313.97 47.7368 314.583 47.6707C315.222 47.6017 316.045 47.6002 317.258 47.6002H339.684C340.897 47.6002 341.72 47.6017 342.359 47.6707C342.971 47.7368 343.312 47.8567 343.581 48.0336C343.849 48.2104 344.093 48.4767 344.395 49.0136C344.711 49.5737 345.036 50.3297 345.514 51.4448L346.647 54.0878H310.295L311.428 51.4448Z" stroke="url(#paint78_linear_8_13)" stroke-width="2.19136"/>
</g>
<path d="M308.633 55.1835H348.308L352.028 73.4064H304.914L308.633 55.1835Z" fill="url(#paint79_linear_8_13)"/>
<path d="M357.535 51.0132C358.472 48.8265 358.941 47.7332 359.872 47.1188C360.804 46.5045 361.993 46.5045 364.372 46.5045H386.798C389.177 46.5045 390.366 46.5045 391.298 47.1188C392.23 47.7332 392.698 48.8265 393.635 51.0132L395.423 55.1835H355.748L357.535 51.0132Z" fill="url(#paint80_linear_8_13)"/>
<g filter="url(#filter30_f_8_13)">
<path d="M358.542 51.4448C359.02 50.3297 359.345 49.5737 359.66 49.0136C359.963 48.4767 360.207 48.2104 360.475 48.0336C360.744 47.8567 361.085 47.7368 361.697 47.6707C362.336 47.6017 363.159 47.6002 364.372 47.6002H386.798C388.011 47.6002 388.834 47.6017 389.473 47.6707C390.086 47.7368 390.427 47.8567 390.695 48.0336C390.963 48.2104 391.208 48.4767 391.51 49.0136C391.825 49.5737 392.151 50.3297 392.628 51.4448L393.761 54.0878H357.409L358.542 51.4448Z" stroke="url(#paint81_linear_8_13)" stroke-width="2.19136"/>
</g>
<path d="M355.748 55.1835H395.423L396.995 62.8879C397.988 67.7525 398.485 70.1847 397.169 71.7956C395.854 73.4064 393.372 73.4064 388.407 73.4064H362.763C357.798 73.4064 355.316 73.4064 354.001 71.7956C352.686 70.1847 353.182 67.7525 354.175 62.8879L355.748 55.1835Z" fill="url(#paint82_linear_8_13)"/>
<path d="M404.126 51.0132C405.064 48.8265 405.532 47.7332 406.464 47.1188C407.395 46.5045 408.585 46.5045 410.964 46.5045H433.39C435.769 46.5045 436.958 46.5045 437.89 47.1188C438.821 47.7332 439.29 48.8265 440.227 51.0132L442.014 55.1835H402.339L404.126 51.0132Z" fill="url(#paint83_linear_8_13)"/>
<g filter="url(#filter31_f_8_13)">
<path d="M405.134 51.4448C405.611 50.3297 405.937 49.5737 406.252 49.0136C406.554 48.4767 406.799 48.2104 407.067 48.0336C407.335 47.8567 407.676 47.7368 408.289 47.6707C408.928 47.6017 409.751 47.6002 410.964 47.6002H433.39C434.603 47.6002 435.426 47.6017 436.065 47.6707C436.677 47.7368 437.018 47.8567 437.287 48.0336C437.555 48.2104 437.799 48.4767 438.101 49.0136C438.417 49.5737 438.742 50.3297 439.22 51.4448L440.353 54.0878H404.001L405.134 51.4448Z" stroke="url(#paint84_linear_8_13)" stroke-width="2.19136"/>
</g>
<path d="M402.339 55.1835H442.014L443.587 62.8879C444.58 67.7525 445.076 70.1847 443.761 71.7956C442.446 73.4064 439.963 73.4064 434.999 73.4064H409.355C404.39 73.4064 401.908 73.4064 400.592 71.7956C399.277 70.1847 399.774 67.7525 400.767 62.8879L402.339 55.1835Z" fill="url(#paint85_linear_8_13)"/>
<path d="M450.898 51.0132C451.836 48.8265 452.304 47.7332 453.236 47.1188C454.167 46.5045 455.357 46.5045 457.736 46.5045L506.775 46.5045C509.154 46.5045 510.344 46.5045 511.275 47.1188C512.207 47.7332 512.676 48.8265 513.613 51.0132L515.4 55.1835H449.111L450.898 51.0132Z" fill="url(#paint86_linear_8_13)"/>
<g filter="url(#filter32_f_8_13)">
<path d="M451.906 51.4448C452.383 50.3297 452.709 49.5737 453.024 49.0136C453.326 48.4767 453.571 48.2104 453.839 48.0336C454.107 47.8567 454.448 47.7368 455.061 47.6707C455.7 47.6017 456.523 47.6002 457.736 47.6002H506.775C507.988 47.6002 508.811 47.6017 509.45 47.6707C510.063 47.7368 510.404 47.8567 510.672 48.0336C510.94 48.2104 511.185 48.4767 511.487 49.0136C511.802 49.5737 512.128 50.3297 512.606 51.4448L513.738 54.0878H450.773L451.906 51.4448Z" stroke="url(#paint87_linear_8_13)" stroke-width="2.19136"/>
</g>
<path d="M448.996 55.1835H515.515L517.088 62.8879C518.081 67.7525 518.577 70.1847 517.262 71.7956C515.947 73.4064 513.464 73.4064 508.499 73.4064H456.012C451.047 73.4064 448.564 73.4064 447.249 71.7956C445.934 70.1847 446.43 67.7525 447.423 62.8879L448.996 55.1835Z" fill="url(#paint88_linear_8_13)"/>
</g>
<g filter="url(#filter33_d_8_13)">
<path d="M75.3967 71.8311C76.3338 69.6444 76.8024 68.5511 77.7341 67.9368C78.6657 67.3224 79.8552 67.3224 82.2343 67.3224H104.66C107.039 67.3224 108.228 67.3224 109.16 67.9368C110.092 68.5511 110.56 69.6444 111.497 71.8311L113.285 76.0014H73.6094L75.3967 71.8311Z" fill="url(#paint89_linear_8_13)"/>
<g filter="url(#filter34_f_8_13)">
<path d="M76.4038 72.2628C76.8817 71.1477 77.2073 70.3916 77.5224 69.8315C77.8244 69.2946 78.069 69.0284 78.3372 68.8515C78.6055 68.6746 78.9465 68.5547 79.559 68.4886C80.1979 68.4196 81.0211 68.4181 82.2343 68.4181H104.66C105.873 68.4181 106.696 68.4196 107.335 68.4886C107.948 68.5547 108.289 68.6746 108.557 68.8515C108.825 69.0284 109.07 69.2946 109.372 69.8315C109.687 70.3916 110.012 71.1477 110.49 72.2628L111.623 74.9057H75.2711L76.4038 72.2628Z" stroke="url(#paint90_linear_8_13)" stroke-width="2.19136"/>
</g>
<path d="M73.6094 76.0014H113.285L114.511 81.2864C115.661 86.2424 116.236 88.7204 114.92 90.3767C113.604 92.033 111.06 92.033 105.972 92.033H80.9219C75.8343 92.033 73.2904 92.033 71.9744 90.3767C70.6584 88.7204 71.2334 86.2424 72.3832 81.2864L73.6094 76.0014Z" fill="url(#paint91_linear_8_13)"/>
<path d="M122.511 71.8311C123.448 69.6444 123.917 68.5511 124.848 67.9368C125.78 67.3224 126.97 67.3224 129.349 67.3224H151.774C154.153 67.3224 155.343 67.3224 156.274 67.9368C157.206 68.5511 157.675 69.6444 158.612 71.8311L160.399 76.0014H120.724L122.511 71.8311Z" fill="url(#paint92_linear_8_13)"/>
<g filter="url(#filter35_f_8_13)">
<path d="M123.518 72.2628C123.996 71.1477 124.322 70.3916 124.637 69.8315C124.939 69.2946 125.183 69.0284 125.452 68.8515C125.72 68.6746 126.061 68.5547 126.673 68.4886C127.312 68.4196 128.135 68.4181 129.349 68.4181H151.774C152.987 68.4181 153.81 68.4196 154.449 68.4886C155.062 68.5547 155.403 68.6746 155.671 68.8515C155.939 69.0284 156.184 69.2946 156.486 69.8315C156.801 70.3916 157.127 71.1477 157.605 72.2628L158.737 74.9057H122.385L123.518 72.2628Z" stroke="url(#paint93_linear_8_13)" stroke-width="2.19136"/>
</g>
<path d="M120.724 76.0014H160.399L161.625 81.2864C162.775 86.2424 163.35 88.7204 162.034 90.3767C160.718 92.033 158.174 92.033 153.087 92.033H128.036C122.949 92.033 120.405 92.033 119.089 90.3767C117.773 88.7204 118.348 86.2424 119.498 81.2864L120.724 76.0014Z" fill="url(#paint94_linear_8_13)"/>
<path d="M171.817 71.8311C172.754 69.6444 173.222 68.5511 174.154 67.9368C175.086 67.3224 176.275 67.3224 178.654 67.3224L389.422 67.3224C391.801 67.3224 392.99 67.3224 393.922 67.9368C394.854 68.5511 395.322 69.6444 396.259 71.8312L398.047 76.0014H170.029L171.817 71.8311Z" fill="url(#paint95_linear_8_13)"/>
<g filter="url(#filter36_f_8_13)">
<path d="M172.824 72.2628C173.302 71.1477 173.627 70.3916 173.942 69.8315C174.244 69.2946 174.489 69.0284 174.757 68.8515C175.025 68.6746 175.367 68.5547 175.979 68.4886C176.618 68.4196 177.441 68.4181 178.654 68.4181H389.422C390.635 68.4181 391.458 68.4196 392.097 68.4886C392.71 68.5547 393.051 68.6746 393.319 68.8515C393.587 69.0284 393.832 69.2946 394.134 69.8315C394.449 70.3916 394.774 71.1477 395.252 72.2628L396.385 74.9057H171.691L172.824 72.2628Z" stroke="url(#paint96_linear_8_13)" stroke-width="2.19136"/>
</g>
<path d="M170.029 76.0014H398.162L399.388 81.2864C400.538 86.2424 401.113 88.7204 399.797 90.3767C398.481 92.033 395.937 92.033 390.849 92.033H177.342C172.254 92.033 169.71 92.033 168.394 90.3767C167.078 88.7204 167.653 86.2424 168.803 81.2864L170.029 76.0014Z" fill="url(#paint97_linear_8_13)"/>
<path d="M407.388 71.8311C408.325 69.6444 408.794 68.5511 409.726 67.9368C410.657 67.3224 411.847 67.3224 414.226 67.3224H436.651C439.03 67.3224 440.22 67.3224 441.152 67.9368C442.083 68.5511 442.552 69.6444 443.489 71.8311L445.276 76.0014H405.601L407.388 71.8311Z" fill="url(#paint98_linear_8_13)"/>
<g filter="url(#filter37_f_8_13)">
<path d="M408.395 72.2628C408.873 71.1477 409.199 70.3916 409.514 69.8315C409.816 69.2946 410.061 69.0284 410.329 68.8515C410.597 68.6746 410.938 68.5547 411.551 68.4886C412.19 68.4196 413.013 68.4181 414.226 68.4181H436.651C437.865 68.4181 438.688 68.4196 439.327 68.4886C439.939 68.5547 440.28 68.6746 440.548 68.8515C440.817 69.0284 441.061 69.2946 441.363 69.8315C441.678 70.3916 442.004 71.1477 442.482 72.2628L443.615 74.9057H407.263L408.395 72.2628Z" stroke="url(#paint99_linear_8_13)" stroke-width="2.19136"/>
</g>
<path d="M405.601 76.0014H445.276L446.502 81.2864C447.652 86.2424 448.227 88.7204 446.911 90.3767C445.595 92.033 443.051 92.033 437.964 92.033H412.913C407.826 92.033 405.282 92.033 403.966 90.3767C402.65 88.7204 403.225 86.2424 404.375 81.2864L405.601 76.0014Z" fill="url(#paint100_linear_8_13)"/>
<path d="M454.503 71.8311C455.44 69.6444 455.908 68.5511 456.84 67.9368C457.772 67.3224 458.961 67.3224 461.34 67.3224H483.766C486.145 67.3224 487.334 67.3224 488.266 67.9368C489.198 68.5511 489.666 69.6444 490.603 71.8311L492.391 76.0014H452.715L454.503 71.8311Z" fill="url(#paint101_linear_8_13)"/>
<g filter="url(#filter38_f_8_13)">
<path d="M455.51 72.2628C455.988 71.1477 456.313 70.3916 456.628 69.8315C456.93 69.2946 457.175 69.0284 457.443 68.8515C457.711 68.6746 458.052 68.5547 458.665 68.4886C459.304 68.4196 460.127 68.4181 461.34 68.4181H483.766C484.979 68.4181 485.802 68.4196 486.441 68.4886C487.053 68.5547 487.395 68.6746 487.663 68.8515C487.931 69.0284 488.176 69.2946 488.478 69.8315C488.793 70.3916 489.118 71.1477 489.596 72.2628L490.729 74.9057H454.377L455.51 72.2628Z" stroke="url(#paint102_linear_8_13)" stroke-width="2.19136"/>
</g>
<path d="M452.715 76.0014H492.391L493.617 81.2864C494.767 86.2424 495.342 88.7204 494.026 90.3767C492.71 92.033 490.166 92.033 485.078 92.033H460.028C454.94 92.033 452.396 92.033 451.08 90.3767C449.764 88.7204 450.339 86.2424 451.489 81.2864L452.715 76.0014Z" fill="url(#paint103_linear_8_13)"/>
</g>
<g style="mix-blend-mode:color" opacity="0.2">
<path d="M23.3619 4.86859H492.862L507.362 69.8686H8.86194L23.3619 4.86859Z" fill="url(#paint104_linear_8_13)"/>
</g>
<defs>
<filter id="filter0_f_8_13" x="2.47687" y="10.347" width="561.046" height="108.473" filterUnits="userSpaceOnUse" color-interpolation-filters="sRGB">
<feFlood flood-opacity="0" result="BackgroundImageFix"/>
<feBlend mode="normal" in="SourceGraphic" in2="BackgroundImageFix" result="shape"/>
<feGaussianBlur stdDeviation="1.09568" result="effect1_foregroundBlur_8_13"/>
</filter>
<filter id="filter1_i_8_13" x="39.1115" y="21.3038" width="489.968" height="77.7934" filterUnits="userSpaceOnUse" color-interpolation-filters="sRGB">
<feFlood flood-opacity="0" result="BackgroundImageFix"/>
<feBlend mode="normal" in="SourceGraphic" in2="BackgroundImageFix" result="shape"/>
<feColorMatrix in="SourceAlpha" type="matrix" values="0 0 0 0 0 0 0 0 0 0 0 0 0 0 0 0 0 0 127 0" result="hardAlpha"/>
<feOffset/>
<feGaussianBlur stdDeviation="6.57409"/>
<feComposite in2="hardAlpha" operator="arithmetic" k2="-1" k3="1"/>
<feColorMatrix type="matrix" values="0 0 0 0 0 0 0 0 0 0 0 0 0 0 0 0 0 0 0.25 0"/>
<feBlend mode="normal" in2="shape" result="effect1_innerShadow_8_13"/>
</filter>
<filter id="filter2_d_8_13" x="45.747" y="0.485864" width="475.602" height="42.2414" filterUnits="userSpaceOnUse" color-interpolation-filters="sRGB">
<feFlood flood-opacity="0" result="BackgroundImageFix"/>
<feColorMatrix in="SourceAlpha" type="matrix" values="0 0 0 0 0 0 0 0 0 0 0 0 0 0 0 0 0 0 127 0" result="hardAlpha"/>
<feOffset dy="2.19136"/>
<feGaussianBlur stdDeviation="3.28705"/>
<feColorMatrix type="matrix" values="0 0 0 0 0 0 0 0 0 0 0 0 0 0 0 0 0 0 0.3 0"/>
<feBlend mode="normal" in2="BackgroundImageFix" result="effect1_dropShadow_8_13"/>
<feBlend mode="normal" in="SourceGraphic" in2="effect1_dropShadow_8_13" result="shape"/>
</filter>
<filter id="filter3_f_8_13" x="53.8872" y="3.77291" width="41.8666" height="10.8703" filterUnits="userSpaceOnUse" color-interpolation-filters="sRGB">
<feFlood flood-opacity="0" result="BackgroundImageFix"/>
<feBlend mode="normal" in="SourceGraphic" in2="BackgroundImageFix" result="shape"/>
<feGaussianBlur stdDeviation="0.547841" result="effect1_foregroundBlur_8_13"/>
</filter>
<filter id="filter4_f_8_13" x="120.724" y="3.77291" width="41.8666" height="10.8703" filterUnits="userSpaceOnUse" color-interpolation-filters="sRGB">
<feFlood flood-opacity="0" result="BackgroundImageFix"/>
<feBlend mode="normal" in="SourceGraphic" in2="BackgroundImageFix" result="shape"/>
<feGaussianBlur stdDeviation="0.547841" result="effect1_foregroundBlur_8_13"/>
</filter>
<filter id="filter5_f_8_13" x="167.838" y="3.77291" width="41.8666" height="10.8703" filterUnits="userSpaceOnUse" color-interpolation-filters="sRGB">
<feFlood flood-opacity="0" result="BackgroundImageFix"/>
<feBlend mode="normal" in="SourceGraphic" in2="BackgroundImageFix" result="shape"/>
<feGaussianBlur stdDeviation="0.547841" result="effect1_foregroundBlur_8_13"/>
</filter>
<filter id="filter6_f_8_13" x="214.952" y="3.77291" width="41.8666" height="10.8703" filterUnits="userSpaceOnUse" color-interpolation-filters="sRGB">
<feFlood flood-opacity="0" result="BackgroundImageFix"/>
<feBlend mode="normal" in="SourceGraphic" in2="BackgroundImageFix" result="shape"/>
<feGaussianBlur stdDeviation="0.547841" result="effect1_foregroundBlur_8_13"/>
</filter>
<filter id="filter7_f_8_13" x="262.067" y="3.77291" width="41.8666" height="10.8703" filterUnits="userSpaceOnUse" color-interpolation-filters="sRGB">
<feFlood flood-opacity="0" result="BackgroundImageFix"/>
<feBlend mode="normal" in="SourceGraphic" in2="BackgroundImageFix" result="shape"/>
<feGaussianBlur stdDeviation="0.547841" result="effect1_foregroundBlur_8_13"/>
</filter>
<filter id="filter8_f_8_13" x="309.181" y="3.77291" width="41.8666" height="10.8703" filterUnits="userSpaceOnUse" color-interpolation-filters="sRGB">
<feFlood flood-opacity="0" result="BackgroundImageFix"/>
<feBlend mode="normal" in="SourceGraphic" in2="BackgroundImageFix" result="shape"/>
<feGaussianBlur stdDeviation="0.547841" result="effect1_foregroundBlur_8_13"/>
</filter>
<filter id="filter9_f_8_13" x="356.295" y="3.77291" width="41.8666" height="10.8703" filterUnits="userSpaceOnUse" color-interpolation-filters="sRGB">
<feFlood flood-opacity="0" result="BackgroundImageFix"/>
<feBlend mode="normal" in="SourceGraphic" in2="BackgroundImageFix" result="shape"/>
<feGaussianBlur stdDeviation="0.547841" result="effect1_foregroundBlur_8_13"/>
</filter>
<filter id="filter10_f_8_13" x="403.41" y="3.77291" width="41.8666" height="10.8703" filterUnits="userSpaceOnUse" color-interpolation-filters="sRGB">
<feFlood flood-opacity="0" result="BackgroundImageFix"/>
<feBlend mode="normal" in="SourceGraphic" in2="BackgroundImageFix" result="shape"/>
<feGaussianBlur stdDeviation="0.547841" result="effect1_foregroundBlur_8_13"/>
</filter>
<filter id="filter11_f_8_13" x="471.342" y="3.77291" width="41.8666" height="10.8703" filterUnits="userSpaceOnUse" color-interpolation-filters="sRGB">
<feFlood flood-opacity="0" result="BackgroundImageFix"/>
<feBlend mode="normal" in="SourceGraphic" in2="BackgroundImageFix" result="shape"/>
<feGaussianBlur stdDeviation="0.547841" result="effect1_foregroundBlur_8_13"/>
</filter>
<filter id="filter12_d_8_13" x="42.5159" y="21.3038" width="482.064" height="41.1458" filterUnits="userSpaceOnUse" color-interpolation-filters="sRGB">
<feFlood flood-opacity="0" result="BackgroundImageFix"/>
<feColorMatrix in="SourceAlpha" type="matrix" values="0 0 0 0 0 0 0 0 0 0 0 0 0 0 0 0 0 0 127 0" result="hardAlpha"/>
<feOffset dy="2.19136"/>
<feGaussianBlur stdDeviation="3.28705"/>
<feColorMatrix type="matrix" values="0 0 0 0 0 0 0 0 0 0 0 0 0 0 0 0 0 0 0.3 0"/>
<feBlend mode="normal" in2="BackgroundImageFix" result="effect1_dropShadow_8_13"/>
<feBlend mode="normal" in="SourceGraphic" in2="effect1_dropShadow_8_13" result="shape"/>
</filter>
<filter id="filter13_f_8_13" x="50.6001" y="24.5908" width="41.8666" height="10.8703" filterUnits="userSpaceOnUse" color-interpolation-filters="sRGB">
<feFlood flood-opacity="0" result="BackgroundImageFix"/>
<feBlend mode="normal" in="SourceGraphic" in2="BackgroundImageFix" result="shape"/>
<feGaussianBlur stdDeviation="0.547841" result="effect1_foregroundBlur_8_13"/>
</filter>
<filter id="filter14_f_8_13" x="97.7144" y="24.5908" width="41.8666" height="10.8703" filterUnits="userSpaceOnUse" color-interpolation-filters="sRGB">
<feFlood flood-opacity="0" result="BackgroundImageFix"/>
<feBlend mode="normal" in="SourceGraphic" in2="BackgroundImageFix" result="shape"/>
<feGaussianBlur stdDeviation="0.547841" result="effect1_foregroundBlur_8_13"/>
</filter>
<filter id="filter15_f_8_13" x="144.829" y="24.5908" width="41.8666" height="10.8703" filterUnits="userSpaceOnUse" color-interpolation-filters="sRGB">
<feFlood flood-opacity="0" result="BackgroundImageFix"/>
<feBlend mode="normal" in="SourceGraphic" in2="BackgroundImageFix" result="shape"/>
<feGaussianBlur stdDeviation="0.547841" result="effect1_foregroundBlur_8_13"/>
</filter>
<filter id="filter16_f_8_13" x="191.943" y="24.5908" width="41.8666" height="10.8703" filterUnits="userSpaceOnUse" color-interpolation-filters="sRGB">
<feFlood flood-opacity="0" result="BackgroundImageFix"/>
<feBlend mode="normal" in="SourceGraphic" in2="BackgroundImageFix" result="shape"/>
<feGaussianBlur stdDeviation="0.547841" result="effect1_foregroundBlur_8_13"/>
</filter>
<filter id="filter17_f_8_13" x="239.057" y="24.5908" width="41.8666" height="10.8703" filterUnits="userSpaceOnUse" color-interpolation-filters="sRGB">
<feFlood flood-opacity="0" result="BackgroundImageFix"/>
<feBlend mode="normal" in="SourceGraphic" in2="BackgroundImageFix" result="shape"/>
<feGaussianBlur stdDeviation="0.547841" result="effect1_foregroundBlur_8_13"/>
</filter>
<filter id="filter18_f_8_13" x="286.172" y="24.5908" width="41.8666" height="10.8703" filterUnits="userSpaceOnUse" color-interpolation-filters="sRGB">
<feFlood flood-opacity="0" result="BackgroundImageFix"/>
<feBlend mode="normal" in="SourceGraphic" in2="BackgroundImageFix" result="shape"/>
<feGaussianBlur stdDeviation="0.547841" result="effect1_foregroundBlur_8_13"/>
</filter>
<filter id="filter19_f_8_13" x="333.286" y="24.5908" width="41.8666" height="10.8703" filterUnits="userSpaceOnUse" color-interpolation-filters="sRGB">
<feFlood flood-opacity="0" result="BackgroundImageFix"/>
<feBlend mode="normal" in="SourceGraphic" in2="BackgroundImageFix" result="shape"/>
<feGaussianBlur stdDeviation="0.547841" result="effect1_foregroundBlur_8_13"/>
</filter>
<filter id="filter20_f_8_13" x="380.4" y="24.5908" width="41.8666" height="10.8703" filterUnits="userSpaceOnUse" color-interpolation-filters="sRGB">
<feFlood flood-opacity="0" result="BackgroundImageFix"/>
<feBlend mode="normal" in="SourceGraphic" in2="BackgroundImageFix" result="shape"/>
<feGaussianBlur stdDeviation="0.547841" result="effect1_foregroundBlur_8_13"/>
</filter>
<filter id="filter21_f_8_13" x="427.515" y="24.5908" width="41.8666" height="10.8703" filterUnits="userSpaceOnUse" color-interpolation-filters="sRGB">
<feFlood flood-opacity="0" result="BackgroundImageFix"/>
<feBlend mode="normal" in="SourceGraphic" in2="BackgroundImageFix" result="shape"/>
<feGaussianBlur stdDeviation="0.547841" result="effect1_foregroundBlur_8_13"/>
</filter>
<filter id="filter22_f_8_13" x="474.629" y="24.5908" width="41.8666" height="10.8703" filterUnits="userSpaceOnUse" color-interpolation-filters="sRGB">
<feFlood flood-opacity="0" result="BackgroundImageFix"/>
<feBlend mode="normal" in="SourceGraphic" in2="BackgroundImageFix" result="shape"/>
<feGaussianBlur stdDeviation="0.547841" result="effect1_foregroundBlur_8_13"/>
</filter>
<filter id="filter23_d_8_13" x="40.3873" y="42.1218" width="484.245" height="40.05" filterUnits="userSpaceOnUse" color-interpolation-filters="sRGB">
<feFlood flood-opacity="0" result="BackgroundImageFix"/>
<feColorMatrix in="SourceAlpha" type="matrix" values="0 0 0 0 0 0 0 0 0 0 0 0 0 0 0 0 0 0 127 0" result="hardAlpha"/>
<feOffset dy="2.19136"/>
<feGaussianBlur stdDeviation="3.28705"/>
<feColorMatrix type="matrix" values="0 0 0 0 0 0 0 0 0 0 0 0 0 0 0 0 0 0 0.3 0"/>
<feBlend mode="normal" in2="BackgroundImageFix" result="effect1_dropShadow_8_13"/>
<feBlend mode="normal" in="SourceGraphic" in2="effect1_dropShadow_8_13" result="shape"/>
</filter>
<filter id="filter24_f_8_13" x="48.5241" y="45.4088" width="68.4801" height="10.8703" filterUnits="userSpaceOnUse" color-interpolation-filters="sRGB">
<feFlood flood-opacity="0" result="BackgroundImageFix"/>
<feBlend mode="normal" in="SourceGraphic" in2="BackgroundImageFix" result="shape"/>
<feGaussianBlur stdDeviation="0.547841" result="effect1_foregroundBlur_8_13"/>
</filter>
<filter id="filter25_f_8_13" x="120.724" y="45.4088" width="41.8666" height="10.8703" filterUnits="userSpaceOnUse" color-interpolation-filters="sRGB">
<feFlood flood-opacity="0" result="BackgroundImageFix"/>
<feBlend mode="normal" in="SourceGraphic" in2="BackgroundImageFix" result="shape"/>
<feGaussianBlur stdDeviation="0.547841" result="effect1_foregroundBlur_8_13"/>
</filter>
<filter id="filter26_f_8_13" x="166.195" y="45.4088" width="41.8666" height="10.8703" filterUnits="userSpaceOnUse" color-interpolation-filters="sRGB">
<feFlood flood-opacity="0" result="BackgroundImageFix"/>
<feBlend mode="normal" in="SourceGraphic" in2="BackgroundImageFix" result="shape"/>
<feGaussianBlur stdDeviation="0.547841" result="effect1_foregroundBlur_8_13"/>
</filter>
<filter id="filter27_f_8_13" x="213.309" y="45.4088" width="41.8666" height="10.8703" filterUnits="userSpaceOnUse" color-interpolation-filters="sRGB">
<feFlood flood-opacity="0" result="BackgroundImageFix"/>
<feBlend mode="normal" in="SourceGraphic" in2="BackgroundImageFix" result="shape"/>
<feGaussianBlur stdDeviation="0.547841" result="effect1_foregroundBlur_8_13"/>
</filter>
<filter id="filter28_f_8_13" x="260.423" y="45.4088" width="41.8666" height="10.8703" filterUnits="userSpaceOnUse" color-interpolation-filters="sRGB">
<feFlood flood-opacity="0" result="BackgroundImageFix"/>
<feBlend mode="normal" in="SourceGraphic" in2="BackgroundImageFix" result="shape"/>
<feGaussianBlur stdDeviation="0.547841" result="effect1_foregroundBlur_8_13"/>
</filter>
<filter id="filter29_f_8_13" x="307.538" y="45.4088" width="41.8666" height="10.8703" filterUnits="userSpaceOnUse" color-interpolation-filters="sRGB">
<feFlood flood-opacity="0" result="BackgroundImageFix"/>
<feBlend mode="normal" in="SourceGraphic" in2="BackgroundImageFix" result="shape"/>
<feGaussianBlur stdDeviation="0.547841" result="effect1_foregroundBlur_8_13"/>
</filter>
<filter id="filter30_f_8_13" x="354.652" y="45.4088" width="41.8666" height="10.8703" filterUnits="userSpaceOnUse" color-interpolation-filters="sRGB">
<feFlood flood-opacity="0" result="BackgroundImageFix"/>
<feBlend mode="normal" in="SourceGraphic" in2="BackgroundImageFix" result="shape"/>
<feGaussianBlur stdDeviation="0.547841" result="effect1_foregroundBlur_8_13"/>
</filter>
<filter id="filter31_f_8_13" x="401.243" y="45.4088" width="41.8666" height="10.8703" filterUnits="userSpaceOnUse" color-interpolation-filters="sRGB">
<feFlood flood-opacity="0" result="BackgroundImageFix"/>
<feBlend mode="normal" in="SourceGraphic" in2="BackgroundImageFix" result="shape"/>
<feGaussianBlur stdDeviation="0.547841" result="effect1_foregroundBlur_8_13"/>
</filter>
<filter id="filter32_f_8_13" x="448.015" y="45.4088" width="68.4801" height="10.8703" filterUnits="userSpaceOnUse" color-interpolation-filters="sRGB">
<feFlood flood-opacity="0" result="BackgroundImageFix"/>
<feBlend mode="normal" in="SourceGraphic" in2="BackgroundImageFix" result="shape"/>
<feGaussianBlur stdDeviation="0.547841" result="effect1_foregroundBlur_8_13"/>
</filter>
<filter id="filter33_d_8_13" x="64.6445" y="62.9397" width="436.711" height="37.8587" filterUnits="userSpaceOnUse" color-interpolation-filters="sRGB">
<feFlood flood-opacity="0" result="BackgroundImageFix"/>
<feColorMatrix in="SourceAlpha" type="matrix" values="0 0 0 0 0 0 0 0 0 0 0 0 0 0 0 0 0 0 127 0" result="hardAlpha"/>
<feOffset dy="2.19136"/>
<feGaussianBlur stdDeviation="3.28705"/>
<feColorMatrix type="matrix" values="0 0 0 0 0 0 0 0 0 0 0 0 0 0 0 0 0 0 0.3 0"/>
<feBlend mode="normal" in2="BackgroundImageFix" result="effect1_dropShadow_8_13"/>
<feBlend mode="normal" in="SourceGraphic" in2="effect1_dropShadow_8_13" result="shape"/>
</filter>
<filter id="filter34_f_8_13" x="72.5137" y="66.2268" width="41.8666" height="10.8703" filterUnits="userSpaceOnUse" color-interpolation-filters="sRGB">
<feFlood flood-opacity="0" result="BackgroundImageFix"/>
<feBlend mode="normal" in="SourceGraphic" in2="BackgroundImageFix" result="shape"/>
<feGaussianBlur stdDeviation="0.547841" result="effect1_foregroundBlur_8_13"/>
</filter>
<filter id="filter35_f_8_13" x="119.628" y="66.2268" width="41.8666" height="10.8703" filterUnits="userSpaceOnUse" color-interpolation-filters="sRGB">
<feFlood flood-opacity="0" result="BackgroundImageFix"/>
<feBlend mode="normal" in="SourceGraphic" in2="BackgroundImageFix" result="shape"/>
<feGaussianBlur stdDeviation="0.547841" result="effect1_foregroundBlur_8_13"/>
</filter>
<filter id="filter36_f_8_13" x="168.934" y="66.2268" width="230.209" height="10.8703" filterUnits="userSpaceOnUse" color-interpolation-filters="sRGB">
<feFlood flood-opacity="0" result="BackgroundImageFix"/>
<feBlend mode="normal" in="SourceGraphic" in2="BackgroundImageFix" result="shape"/>
<feGaussianBlur stdDeviation="0.547841" result="effect1_foregroundBlur_8_13"/>
</filter>
<filter id="filter37_f_8_13" x="404.505" y="66.2268" width="41.8666" height="10.8703" filterUnits="userSpaceOnUse" color-interpolation-filters="sRGB">
<feFlood flood-opacity="0" result="BackgroundImageFix"/>
<feBlend mode="normal" in="SourceGraphic" in2="BackgroundImageFix" result="shape"/>
<feGaussianBlur stdDeviation="0.547841" result="effect1_foregroundBlur_8_13"/>
</filter>
<filter id="filter38_f_8_13" x="451.62" y="66.2268" width="41.8666" height="10.8703" filterUnits="userSpaceOnUse" color-interpolation-filters="sRGB">
<feFlood flood-opacity="0" result="BackgroundImageFix"/>
<feBlend mode="normal" in="SourceGraphic" in2="BackgroundImageFix" result="shape"/>
<feGaussianBlur stdDeviation="0.547841" result="effect1_foregroundBlur_8_13"/>
</filter>
<linearGradient id="paint0_linear_8_13" x1="283.548" y1="111.035" x2="283.548" y2="154.965" gradientUnits="userSpaceOnUse">
<stop offset="0.00456653" stop-color="#CFC1B5"/>
<stop offset="0.929747" stop-color="#BDB6AA"/>
<stop offset="1" stop-color="#928C84"/>
</linearGradient>
<linearGradient id="paint1_linear_8_13" x1="283.548" y1="42.6696" x2="283.839" y2="114.436" gradientUnits="userSpaceOnUse">
<stop stop-color="#D6C8BD"/>
<stop offset="1" stop-color="#EFE5DC"/>
</linearGradient>
<linearGradient id="paint2_linear_8_13" x1="283" y1="12.5383" x2="283" y2="116.628" gradientUnits="userSpaceOnUse">
<stop stop-color="white" stop-opacity="0"/>
<stop offset="1" stop-color="white" stop-opacity="0.4"/>
</linearGradient>
<linearGradient id="paint3_linear_8_13" x1="283.548" y1="44.3073" x2="283.717" y2="99.0967" gradientUnits="userSpaceOnUse">
<stop stop-color="#716B67"/>
<stop offset="1" stop-color="#988F87"/>
</linearGradient>
<linearGradient id="paint4_linear_8_13" x1="284.096" y1="21.3038" x2="284.096" y2="99.0972" gradientUnits="userSpaceOnUse">
<stop/>
<stop offset="1" stop-opacity="0.2"/>
</linearGradient>
<linearGradient id="paint5_linear_8_13" x1="74.879" y1="4.86859" x2="74.8771" y2="13.5476" gradientUnits="userSpaceOnUse">
<stop stop-color="#EFE5DC"/>
<stop offset="1" stop-color="#D2CCC1"/>
</linearGradient>
<linearGradient id="paint6_linear_8_13" x1="74.8205" y1="4.86859" x2="74.8205" y2="13.5475" gradientUnits="userSpaceOnUse">
<stop stop-color="white" stop-opacity="0"/>
<stop offset="1" stop-color="white" stop-opacity="0.3"/>
</linearGradient>
<linearGradient id="paint7_linear_8_13" x1="74.8205" y1="13.5475" x2="74.8205" y2="29.879" gradientUnits="userSpaceOnUse">
<stop stop-color="#BCB2A1"/>
<stop offset="1" stop-color="#928C84"/>
</linearGradient>
<linearGradient id="paint8_linear_8_13" x1="141.716" y1="4.86859" x2="141.714" y2="13.5476" gradientUnits="userSpaceOnUse">
<stop stop-color="#EFE5DC"/>
<stop offset="1" stop-color="#D2CCC1"/>
</linearGradient>
<linearGradient id="paint9_linear_8_13" x1="141.657" y1="4.86859" x2="141.657" y2="13.5475" gradientUnits="userSpaceOnUse">
<stop stop-color="white" stop-opacity="0"/>
<stop offset="1" stop-color="white" stop-opacity="0.3"/>
</linearGradient>
<linearGradient id="paint10_linear_8_13" x1="141.657" y1="13.5475" x2="141.657" y2="29.879" gradientUnits="userSpaceOnUse">
<stop stop-color="#BCB2A1"/>
<stop offset="1" stop-color="#928C84"/>
</linearGradient>
<linearGradient id="paint11_linear_8_13" x1="188.83" y1="4.86859" x2="188.828" y2="13.5476" gradientUnits="userSpaceOnUse">
<stop stop-color="#EFE5DC"/>
<stop offset="1" stop-color="#D2CCC1"/>
</linearGradient>
<linearGradient id="paint12_linear_8_13" x1="188.771" y1="4.86859" x2="188.771" y2="13.5475" gradientUnits="userSpaceOnUse">
<stop stop-color="white" stop-opacity="0"/>
<stop offset="1" stop-color="white" stop-opacity="0.3"/>
</linearGradient>
<linearGradient id="paint13_linear_8_13" x1="188.771" y1="13.5475" x2="188.771" y2="29.879" gradientUnits="userSpaceOnUse">
<stop stop-color="#BCB2A1"/>
<stop offset="1" stop-color="#928C84"/>
</linearGradient>
<linearGradient id="paint14_linear_8_13" x1="235.944" y1="4.86859" x2="235.942" y2="13.5476" gradientUnits="userSpaceOnUse">
<stop stop-color="#EFE5DC"/>
<stop offset="1" stop-color="#D2CCC1"/>
</linearGradient>
<linearGradient id="paint15_linear_8_13" x1="235.886" y1="4.86859" x2="235.886" y2="13.5475" gradientUnits="userSpaceOnUse">
<stop stop-color="white" stop-opacity="0"/>
<stop offset="1" stop-color="white" stop-opacity="0.3"/>
</linearGradient>
<linearGradient id="paint16_linear_8_13" x1="235.886" y1="13.5475" x2="235.886" y2="29.879" gradientUnits="userSpaceOnUse">
<stop stop-color="#BCB2A1"/>
<stop offset="1" stop-color="#928C84"/>
</linearGradient>
<linearGradient id="paint17_linear_8_13" x1="283.059" y1="4.86859" x2="283.057" y2="13.5476" gradientUnits="userSpaceOnUse">
<stop stop-color="#EFE5DC"/>
<stop offset="1" stop-color="#D2CCC1"/>
</linearGradient>
<linearGradient id="paint18_linear_8_13" x1="283" y1="4.86859" x2="283" y2="13.5475" gradientUnits="userSpaceOnUse">
<stop stop-color="white" stop-opacity="0"/>
<stop offset="1" stop-color="white" stop-opacity="0.3"/>
</linearGradient>
<linearGradient id="paint19_linear_8_13" x1="283" y1="13.5475" x2="283" y2="29.879" gradientUnits="userSpaceOnUse">
<stop stop-color="#BCB2A1"/>
<stop offset="1" stop-color="#928C84"/>
</linearGradient>
<linearGradient id="paint20_linear_8_13" x1="330.173" y1="4.86859" x2="330.171" y2="13.5476" gradientUnits="userSpaceOnUse">
<stop stop-color="#EFE5DC"/>
<stop offset="1" stop-color="#D2CCC1"/>
</linearGradient>
<linearGradient id="paint21_linear_8_13" x1="330.114" y1="4.86859" x2="330.114" y2="13.5475" gradientUnits="userSpaceOnUse">
<stop stop-color="white" stop-opacity="0"/>
<stop offset="1" stop-color="white" stop-opacity="0.3"/>
</linearGradient>
<linearGradient id="paint22_linear_8_13" x1="330.114" y1="13.5475" x2="330.114" y2="29.879" gradientUnits="userSpaceOnUse">
<stop stop-color="#BCB2A1"/>
<stop offset="1" stop-color="#928C84"/>
</linearGradient>
<linearGradient id="paint23_linear_8_13" x1="377.287" y1="4.86859" x2="377.285" y2="13.5476" gradientUnits="userSpaceOnUse">
<stop stop-color="#EFE5DC"/>
<stop offset="1" stop-color="#D2CCC1"/>
</linearGradient>
<linearGradient id="paint24_linear_8_13" x1="377.229" y1="4.86859" x2="377.229" y2="13.5475" gradientUnits="userSpaceOnUse">
<stop stop-color="white" stop-opacity="0"/>
<stop offset="1" stop-color="white" stop-opacity="0.3"/>
</linearGradient>
<linearGradient id="paint25_linear_8_13" x1="377.229" y1="13.5475" x2="377.229" y2="29.879" gradientUnits="userSpaceOnUse">
<stop stop-color="#BCB2A1"/>
<stop offset="1" stop-color="#928C84"/>
</linearGradient>
<linearGradient id="paint26_linear_8_13" x1="424.401" y1="4.86859" x2="424.4" y2="13.5476" gradientUnits="userSpaceOnUse">
<stop stop-color="#EFE5DC"/>
<stop offset="1" stop-color="#D2CCC1"/>
</linearGradient>
<linearGradient id="paint27_linear_8_13" x1="424.343" y1="4.86859" x2="424.343" y2="13.5475" gradientUnits="userSpaceOnUse">
<stop stop-color="white" stop-opacity="0"/>
<stop offset="1" stop-color="white" stop-opacity="0.3"/>
</linearGradient>
<linearGradient id="paint28_linear_8_13" x1="424.343" y1="13.5475" x2="424.343" y2="29.879" gradientUnits="userSpaceOnUse">
<stop stop-color="#BCB2A1"/>
<stop offset="1" stop-color="#928C84"/>
</linearGradient>
<linearGradient id="paint29_linear_8_13" x1="492.334" y1="4.86859" x2="492.332" y2="13.5476" gradientUnits="userSpaceOnUse">
<stop stop-color="#EFE5DC"/>
<stop offset="1" stop-color="#D2CCC1"/>
</linearGradient>
<linearGradient id="paint30_linear_8_13" x1="492.275" y1="4.86859" x2="492.275" y2="13.5475" gradientUnits="userSpaceOnUse">
<stop stop-color="white" stop-opacity="0"/>
<stop offset="1" stop-color="white" stop-opacity="0.3"/>
</linearGradient>
<linearGradient id="paint31_linear_8_13" x1="492.275" y1="13.5475" x2="492.275" y2="29.879" gradientUnits="userSpaceOnUse">
<stop stop-color="#BCB2A1"/>
<stop offset="1" stop-color="#928C84"/>
</linearGradient>
<linearGradient id="paint32_linear_8_13" x1="71.5919" y1="25.6865" x2="71.59" y2="34.3655" gradientUnits="userSpaceOnUse">
<stop stop-color="#EFE5DC"/>
<stop offset="1" stop-color="#D2CCC1"/>
</linearGradient>
<linearGradient id="paint33_linear_8_13" x1="71.5334" y1="25.6865" x2="71.5334" y2="34.3655" gradientUnits="userSpaceOnUse">
<stop stop-color="white" stop-opacity="0"/>
<stop offset="1" stop-color="white" stop-opacity="0.3"/>
</linearGradient>
<linearGradient id="paint34_linear_8_13" x1="71.5334" y1="34.3655" x2="71.5334" y2="49.8204" gradientUnits="userSpaceOnUse">
<stop stop-color="#BCB2A1"/>
<stop offset="1" stop-color="#928C84"/>
</linearGradient>
<linearGradient id="paint35_linear_8_13" x1="118.706" y1="25.6865" x2="118.704" y2="34.3655" gradientUnits="userSpaceOnUse">
<stop stop-color="#EFE5DC"/>
<stop offset="1" stop-color="#D2CCC1"/>
</linearGradient>
<linearGradient id="paint36_linear_8_13" x1="118.648" y1="25.6865" x2="118.648" y2="34.3655" gradientUnits="userSpaceOnUse">
<stop stop-color="white" stop-opacity="0"/>
<stop offset="1" stop-color="white" stop-opacity="0.3"/>
</linearGradient>
<linearGradient id="paint37_linear_8_13" x1="118.648" y1="34.3655" x2="118.648" y2="49.8204" gradientUnits="userSpaceOnUse">
<stop stop-color="#BCB2A1"/>
<stop offset="1" stop-color="#928C84"/>
</linearGradient>
<linearGradient id="paint38_linear_8_13" x1="165.821" y1="25.6865" x2="165.819" y2="34.3655" gradientUnits="userSpaceOnUse">
<stop stop-color="#EFE5DC"/>
<stop offset="1" stop-color="#D2CCC1"/>
</linearGradient>
<linearGradient id="paint39_linear_8_13" x1="165.762" y1="25.6865" x2="165.762" y2="34.3655" gradientUnits="userSpaceOnUse">
<stop stop-color="white" stop-opacity="0"/>
<stop offset="1" stop-color="white" stop-opacity="0.3"/>
</linearGradient>
<linearGradient id="paint40_linear_8_13" x1="165.762" y1="34.3655" x2="165.762" y2="49.8204" gradientUnits="userSpaceOnUse">
<stop stop-color="#BCB2A1"/>
<stop offset="1" stop-color="#928C84"/>
</linearGradient>
<linearGradient id="paint41_linear_8_13" x1="212.935" y1="25.6865" x2="212.933" y2="34.3655" gradientUnits="userSpaceOnUse">
<stop stop-color="#EFE5DC"/>
<stop offset="1" stop-color="#D2CCC1"/>
</linearGradient>
<linearGradient id="paint42_linear_8_13" x1="212.876" y1="25.6865" x2="212.876" y2="34.3655" gradientUnits="userSpaceOnUse">
<stop stop-color="white" stop-opacity="0"/>
<stop offset="1" stop-color="white" stop-opacity="0.3"/>
</linearGradient>
<linearGradient id="paint43_linear_8_13" x1="212.876" y1="34.3655" x2="212.876" y2="49.8204" gradientUnits="userSpaceOnUse">
<stop stop-color="#BCB2A1"/>
<stop offset="1" stop-color="#928C84"/>
</linearGradient>
<linearGradient id="paint44_linear_8_13" x1="260.049" y1="25.6865" x2="260.047" y2="34.3655" gradientUnits="userSpaceOnUse">
<stop stop-color="#EFE5DC"/>
<stop offset="1" stop-color="#D2CCC1"/>
</linearGradient>
<linearGradient id="paint45_linear_8_13" x1="259.991" y1="25.6865" x2="259.991" y2="34.3655" gradientUnits="userSpaceOnUse">
<stop stop-color="white" stop-opacity="0"/>
<stop offset="1" stop-color="white" stop-opacity="0.3"/>
</linearGradient>
<linearGradient id="paint46_linear_8_13" x1="259.991" y1="34.3655" x2="259.991" y2="49.8204" gradientUnits="userSpaceOnUse">
<stop stop-color="#BCB2A1"/>
<stop offset="1" stop-color="#928C84"/>
</linearGradient>
<linearGradient id="paint47_linear_8_13" x1="307.164" y1="25.6865" x2="307.162" y2="34.3655" gradientUnits="userSpaceOnUse">
<stop stop-color="#EFE5DC"/>
<stop offset="1" stop-color="#D2CCC1"/>
</linearGradient>
<linearGradient id="paint48_linear_8_13" x1="307.105" y1="25.6865" x2="307.105" y2="34.3655" gradientUnits="userSpaceOnUse">
<stop stop-color="white" stop-opacity="0"/>
<stop offset="1" stop-color="white" stop-opacity="0.3"/>
</linearGradient>
<linearGradient id="paint49_linear_8_13" x1="307.105" y1="34.3655" x2="307.105" y2="49.8204" gradientUnits="userSpaceOnUse">
<stop stop-color="#BCB2A1"/>
<stop offset="1" stop-color="#928C84"/>
</linearGradient>
<linearGradient id="paint50_linear_8_13" x1="354.278" y1="25.6865" x2="354.276" y2="34.3655" gradientUnits="userSpaceOnUse">
<stop stop-color="#EFE5DC"/>
<stop offset="1" stop-color="#D2CCC1"/>
</linearGradient>
<linearGradient id="paint51_linear_8_13" x1="354.219" y1="25.6865" x2="354.219" y2="34.3655" gradientUnits="userSpaceOnUse">
<stop stop-color="white" stop-opacity="0"/>
<stop offset="1" stop-color="white" stop-opacity="0.3"/>
</linearGradient>
<linearGradient id="paint52_linear_8_13" x1="354.219" y1="34.3655" x2="354.219" y2="49.8204" gradientUnits="userSpaceOnUse">
<stop stop-color="#BCB2A1"/>
<stop offset="1" stop-color="#928C84"/>
</linearGradient>
<linearGradient id="paint53_linear_8_13" x1="401.392" y1="25.6865" x2="401.39" y2="34.3655" gradientUnits="userSpaceOnUse">
<stop stop-color="#EFE5DC"/>
<stop offset="1" stop-color="#D2CCC1"/>
</linearGradient>
<linearGradient id="paint54_linear_8_13" x1="401.334" y1="25.6865" x2="401.334" y2="34.3655" gradientUnits="userSpaceOnUse">
<stop stop-color="white" stop-opacity="0"/>
<stop offset="1" stop-color="white" stop-opacity="0.3"/>
</linearGradient>
<linearGradient id="paint55_linear_8_13" x1="401.334" y1="34.3655" x2="401.334" y2="49.8204" gradientUnits="userSpaceOnUse">
<stop stop-color="#BCB2A1"/>
<stop offset="1" stop-color="#928C84"/>
</linearGradient>
<linearGradient id="paint56_linear_8_13" x1="448.506" y1="25.6865" x2="448.505" y2="34.3655" gradientUnits="userSpaceOnUse">
<stop stop-color="#EFE5DC"/>
<stop offset="1" stop-color="#D2CCC1"/>
</linearGradient>
<linearGradient id="paint57_linear_8_13" x1="448.448" y1="25.6865" x2="448.448" y2="34.3655" gradientUnits="userSpaceOnUse">
<stop stop-color="white" stop-opacity="0"/>
<stop offset="1" stop-color="white" stop-opacity="0.3"/>
</linearGradient>
<linearGradient id="paint58_linear_8_13" x1="448.448" y1="34.3655" x2="448.448" y2="49.8204" gradientUnits="userSpaceOnUse">
<stop stop-color="#BCB2A1"/>
<stop offset="1" stop-color="#928C84"/>
</linearGradient>
<linearGradient id="paint59_linear_8_13" x1="495.621" y1="25.6865" x2="495.619" y2="34.3655" gradientUnits="userSpaceOnUse">
<stop stop-color="#EFE5DC"/>
<stop offset="1" stop-color="#D2CCC1"/>
</linearGradient>
<linearGradient id="paint60_linear_8_13" x1="495.562" y1="25.6865" x2="495.562" y2="34.3655" gradientUnits="userSpaceOnUse">
<stop stop-color="white" stop-opacity="0"/>
<stop offset="1" stop-color="white" stop-opacity="0.3"/>
</linearGradient>
<linearGradient id="paint61_linear_8_13" x1="495.562" y1="34.3655" x2="495.562" y2="49.8204" gradientUnits="userSpaceOnUse">
<stop stop-color="#BCB2A1"/>
<stop offset="1" stop-color="#928C84"/>
</linearGradient>
<linearGradient id="paint62_linear_8_13" x1="82.8619" y1="46.5045" x2="82.8608" y2="55.1835" gradientUnits="userSpaceOnUse">
<stop stop-color="#EFE5DC"/>
<stop offset="1" stop-color="#D2CCC1"/>
</linearGradient>
<linearGradient id="paint63_linear_8_13" x1="82.7642" y1="46.5045" x2="82.7642" y2="55.1835" gradientUnits="userSpaceOnUse">
<stop stop-color="white" stop-opacity="0"/>
<stop offset="1" stop-color="white" stop-opacity="0.3"/>
</linearGradient>
<linearGradient id="paint64_linear_8_13" x1="75.3683" y1="55.1835" x2="75.3683" y2="69.7618" gradientUnits="userSpaceOnUse">
<stop stop-color="#BCB2A1"/>
<stop offset="1" stop-color="#928C84"/>
</linearGradient>
<linearGradient id="paint65_linear_8_13" x1="141.716" y1="46.5045" x2="141.714" y2="55.1835" gradientUnits="userSpaceOnUse">
<stop stop-color="#EFE5DC"/>
<stop offset="1" stop-color="#D2CCC1"/>
</linearGradient>
<linearGradient id="paint66_linear_8_13" x1="141.657" y1="46.5045" x2="141.657" y2="55.1835" gradientUnits="userSpaceOnUse">
<stop stop-color="white" stop-opacity="0"/>
<stop offset="1" stop-color="white" stop-opacity="0.3"/>
</linearGradient>
<linearGradient id="paint67_linear_8_13" x1="141.657" y1="55.1835" x2="141.657" y2="69.7618" gradientUnits="userSpaceOnUse">
<stop stop-color="#BCB2A1"/>
<stop offset="1" stop-color="#928C84"/>
</linearGradient>
<linearGradient id="paint68_linear_8_13" x1="187.186" y1="46.5045" x2="187.184" y2="55.1835" gradientUnits="userSpaceOnUse">
<stop stop-color="#EFE5DC"/>
<stop offset="1" stop-color="#D2CCC1"/>
</linearGradient>
<linearGradient id="paint69_linear_8_13" x1="187.128" y1="46.5045" x2="187.128" y2="55.1835" gradientUnits="userSpaceOnUse">
<stop stop-color="white" stop-opacity="0"/>
<stop offset="1" stop-color="white" stop-opacity="0.3"/>
</linearGradient>
<linearGradient id="paint70_linear_8_13" x1="187.128" y1="55.1835" x2="187.128" y2="69.7618" gradientUnits="userSpaceOnUse">
<stop stop-color="#BCB2A1"/>
<stop offset="1" stop-color="#928C84"/>
</linearGradient>
<linearGradient id="paint71_linear_8_13" x1="234.301" y1="46.5045" x2="234.299" y2="55.1835" gradientUnits="userSpaceOnUse">
<stop stop-color="#EFE5DC"/>
<stop offset="1" stop-color="#D2CCC1"/>
</linearGradient>
<linearGradient id="paint72_linear_8_13" x1="234.242" y1="46.5045" x2="234.242" y2="55.1835" gradientUnits="userSpaceOnUse">
<stop stop-color="white" stop-opacity="0"/>
<stop offset="1" stop-color="white" stop-opacity="0.3"/>
</linearGradient>
<linearGradient id="paint73_linear_8_13" x1="234.242" y1="55.1835" x2="234.242" y2="69.7618" gradientUnits="userSpaceOnUse">
<stop stop-color="#BCB2A1"/>
<stop offset="1" stop-color="#928C84"/>
</linearGradient>
<linearGradient id="paint74_linear_8_13" x1="281.415" y1="46.5045" x2="281.413" y2="55.1835" gradientUnits="userSpaceOnUse">
<stop stop-color="#EFE5DC"/>
<stop offset="1" stop-color="#D2CCC1"/>
</linearGradient>
<linearGradient id="paint75_linear_8_13" x1="281.356" y1="46.5045" x2="281.356" y2="55.1835" gradientUnits="userSpaceOnUse">
<stop stop-color="white" stop-opacity="0"/>
<stop offset="1" stop-color="white" stop-opacity="0.3"/>
</linearGradient>
<linearGradient id="paint76_linear_8_13" x1="281.356" y1="55.1835" x2="281.356" y2="69.7618" gradientUnits="userSpaceOnUse">
<stop stop-color="#BCB2A1"/>
<stop offset="1" stop-color="#928C84"/>
</linearGradient>
<linearGradient id="paint77_linear_8_13" x1="328.529" y1="46.5045" x2="328.527" y2="55.1835" gradientUnits="userSpaceOnUse">
<stop stop-color="#EFE5DC"/>
<stop offset="1" stop-color="#D2CCC1"/>
</linearGradient>
<linearGradient id="paint78_linear_8_13" x1="328.471" y1="46.5045" x2="328.471" y2="55.1835" gradientUnits="userSpaceOnUse">
<stop stop-color="white" stop-opacity="0"/>
<stop offset="1" stop-color="white" stop-opacity="0.3"/>
</linearGradient>
<linearGradient id="paint79_linear_8_13" x1="328.471" y1="55.1835" x2="328.471" y2="69.7618" gradientUnits="userSpaceOnUse">
<stop stop-color="#BCB2A1"/>
<stop offset="1" stop-color="#928C84"/>
</linearGradient>
<linearGradient id="paint80_linear_8_13" x1="375.644" y1="46.5045" x2="375.642" y2="55.1835" gradientUnits="userSpaceOnUse">
<stop stop-color="#EFE5DC"/>
<stop offset="1" stop-color="#D2CCC1"/>
</linearGradient>
<linearGradient id="paint81_linear_8_13" x1="375.585" y1="46.5045" x2="375.585" y2="55.1835" gradientUnits="userSpaceOnUse">
<stop stop-color="white" stop-opacity="0"/>
<stop offset="1" stop-color="white" stop-opacity="0.3"/>
</linearGradient>
<linearGradient id="paint82_linear_8_13" x1="375.585" y1="55.1835" x2="375.585" y2="69.7618" gradientUnits="userSpaceOnUse">
<stop stop-color="#BCB2A1"/>
<stop offset="1" stop-color="#928C84"/>
</linearGradient>
<linearGradient id="paint83_linear_8_13" x1="422.235" y1="46.5045" x2="422.233" y2="55.1835" gradientUnits="userSpaceOnUse">
<stop stop-color="#EFE5DC"/>
<stop offset="1" stop-color="#D2CCC1"/>
</linearGradient>
<linearGradient id="paint84_linear_8_13" x1="422.177" y1="46.5045" x2="422.177" y2="55.1835" gradientUnits="userSpaceOnUse">
<stop stop-color="white" stop-opacity="0"/>
<stop offset="1" stop-color="white" stop-opacity="0.3"/>
</linearGradient>
<linearGradient id="paint85_linear_8_13" x1="422.177" y1="55.1835" x2="422.177" y2="69.7618" gradientUnits="userSpaceOnUse">
<stop stop-color="#BCB2A1"/>
<stop offset="1" stop-color="#928C84"/>
</linearGradient>
<linearGradient id="paint86_linear_8_13" x1="482.353" y1="46.5045" x2="482.352" y2="55.1835" gradientUnits="userSpaceOnUse">
<stop stop-color="#EFE5DC"/>
<stop offset="1" stop-color="#D2CCC1"/>
</linearGradient>
<linearGradient id="paint87_linear_8_13" x1="482.256" y1="46.5045" x2="482.256" y2="55.1835" gradientUnits="userSpaceOnUse">
<stop stop-color="white" stop-opacity="0"/>
<stop offset="1" stop-color="white" stop-opacity="0.3"/>
</linearGradient>
<linearGradient id="paint88_linear_8_13" x1="474.86" y1="55.1835" x2="474.86" y2="69.7618" gradientUnits="userSpaceOnUse">
<stop stop-color="#BCB2A1"/>
<stop offset="1" stop-color="#928C84"/>
</linearGradient>
<linearGradient id="paint89_linear_8_13" x1="93.5056" y1="67.3224" x2="93.5037" y2="76.0014" gradientUnits="userSpaceOnUse">
<stop stop-color="#EFE5DC"/>
<stop offset="1" stop-color="#D2CCC1"/>
</linearGradient>
<linearGradient id="paint90_linear_8_13" x1="93.447" y1="67.3224" x2="93.447" y2="76.0014" gradientUnits="userSpaceOnUse">
<stop stop-color="white" stop-opacity="0"/>
<stop offset="1" stop-color="white" stop-opacity="0.3"/>
</linearGradient>
<linearGradient id="paint91_linear_8_13" x1="93.447" y1="76.0014" x2="93.447" y2="88.8266" gradientUnits="userSpaceOnUse">
<stop stop-color="#CCBFAB"/>
<stop offset="1" stop-color="#BAB2A5"/>
</linearGradient>
<linearGradient id="paint92_linear_8_13" x1="140.62" y1="67.3224" x2="140.618" y2="76.0014" gradientUnits="userSpaceOnUse">
<stop stop-color="#EFE5DC"/>
<stop offset="1" stop-color="#D2CCC1"/>
</linearGradient>
<linearGradient id="paint93_linear_8_13" x1="140.561" y1="67.3224" x2="140.561" y2="76.0014" gradientUnits="userSpaceOnUse">
<stop stop-color="white" stop-opacity="0"/>
<stop offset="1" stop-color="white" stop-opacity="0.3"/>
</linearGradient>
<linearGradient id="paint94_linear_8_13" x1="140.561" y1="76.0014" x2="140.561" y2="88.8266" gradientUnits="userSpaceOnUse">
<stop stop-color="#CCBFAB"/>
<stop offset="1" stop-color="#BAB2A5"/>
</linearGradient>
<linearGradient id="paint95_linear_8_13" x1="284.374" y1="67.3224" x2="284.374" y2="76.0014" gradientUnits="userSpaceOnUse">
<stop stop-color="#EFE5DC"/>
<stop offset="1" stop-color="#D2CCC1"/>
</linearGradient>
<linearGradient id="paint96_linear_8_13" x1="284.038" y1="67.3224" x2="284.038" y2="76.0014" gradientUnits="userSpaceOnUse">
<stop stop-color="white" stop-opacity="0"/>
<stop offset="1" stop-color="white" stop-opacity="0.3"/>
</linearGradient>
<linearGradient id="paint97_linear_8_13" x1="284.096" y1="76.0014" x2="284.096" y2="88.8266" gradientUnits="userSpaceOnUse">
<stop stop-color="#CCBFAB"/>
<stop offset="1" stop-color="#BAB2A5"/>
</linearGradient>
<linearGradient id="paint98_linear_8_13" x1="425.497" y1="67.3224" x2="425.495" y2="76.0014" gradientUnits="userSpaceOnUse">
<stop stop-color="#EFE5DC"/>
<stop offset="1" stop-color="#D2CCC1"/>
</linearGradient>
<linearGradient id="paint99_linear_8_13" x1="425.439" y1="67.3224" x2="425.439" y2="76.0014" gradientUnits="userSpaceOnUse">
<stop stop-color="white" stop-opacity="0"/>
<stop offset="1" stop-color="white" stop-opacity="0.3"/>
</linearGradient>
<linearGradient id="paint100_linear_8_13" x1="425.439" y1="76.0014" x2="425.439" y2="88.8266" gradientUnits="userSpaceOnUse">
<stop stop-color="#CCBFAB"/>
<stop offset="1" stop-color="#BAB2A5"/>
</linearGradient>
<linearGradient id="paint101_linear_8_13" x1="472.611" y1="67.3224" x2="472.61" y2="76.0014" gradientUnits="userSpaceOnUse">
<stop stop-color="#EFE5DC"/>
<stop offset="1" stop-color="#D2CCC1"/>
</linearGradient>
<linearGradient id="paint102_linear_8_13" x1="472.553" y1="67.3224" x2="472.553" y2="76.0014" gradientUnits="userSpaceOnUse">
<stop stop-color="white" stop-opacity="0"/>
<stop offset="1" stop-color="white" stop-opacity="0.3"/>
</linearGradient>
<linearGradient id="paint103_linear_8_13" x1="472.553" y1="76.0014" x2="472.553" y2="88.8266" gradientUnits="userSpaceOnUse">
<stop stop-color="#CCBFAB"/>
<stop offset="1" stop-color="#BAB2A5"/>
</linearGradient>
<linearGradient id="paint104_linear_8_13" x1="258.862" y1="4.86859" x2="258.862" y2="69.8686" gradientUnits="userSpaceOnUse">
<stop stop-color="#1295CA"/>
<stop offset="1" stop-color="#1295CA" stop-opacity="0"/>
</linearGradient>
</defs>
</svg>
