<svg width="588" height="900" viewBox="0 0 588 900" fill="none" xmlns="http://www.w3.org/2000/svg">
<g clip-path="url(#clip0_1_1310)">
<rect width="588" height="911" fill="#2563EB"/>
<path opacity="0.1" fill-rule="evenodd" clip-rule="evenodd" d="M201.698 116.665V116.887L403.302 233.732L219.558 340.229L201.698 350.579L0.0953979 467.426L0.0953979 233.732L2.45357 234.876L0.287677 233.621L0.0953979 233.732L0.0953979 0.0395508L201.506 116.776L201.698 116.665ZM403.302 701.118L201.698 817.965L201.698 584.299L201.676 584.286L0.0953979 701.12L0.0953979 467.426L201.676 584.259L201.698 584.245L201.698 350.579L403.302 467.426L403.255 467.453L403.255 701.092L403.302 701.118ZM604.905 350.579L403.302 467.426V233.732L604.905 116.887V350.579ZM403.302 701.118L604.905 817.965V584.273L403.302 467.426L403.302 701.118Z" fill="white"/>
</g>
<defs>
<clipPath id="clip0_1_1310">
<rect width="588" height="911" fill="white"/>
</clipPath>
</defs>
</svg>
